<svg width="97" height="101" viewBox="0 0 97 101" fill="none" xmlns="http://www.w3.org/2000/svg">
<g clip-path="url(#clip0_57_328)">
<path d="M85.253 80.8551V70.947C81.3104 76.2315 73.5585 81.6476 73.5585 81.6476L72.2448 80.194C64.3017 86.0443 53.5992 87.0391 47.2925 87.0457C40.9237 86.7495 31.9822 85.3234 25.1084 80.2601L23.7939 81.7141C23.7939 81.7141 16.0416 76.2974 12.0999 71.0132V80.9205L1.45703 79.6C1.45703 79.6 12.6256 93.2065 22.3486 96.5091L23.9252 93.867C23.9252 93.867 34.3217 99.1486 46.7953 99.1486C61.2568 99.1486 73.4275 93.8009 73.4275 93.8009L75.0039 96.4431C84.7269 93.1404 95.8952 79.5339 95.8952 79.5339L85.253 80.8551Z" fill="#00A650"/>
<path d="M85.253 80.8551V70.947C81.3105 76.2315 73.5585 81.6476 73.5585 81.6476L72.2448 80.194C64.3017 86.0443 53.5992 87.0391 47.2925 87.0457C40.9237 86.7495 31.9822 85.3234 25.1084 80.2601L23.7939 81.7141C23.7939 81.7141 16.0416 76.2974 12.0999 71.0132V80.9205L1.45703 79.6C1.45703 79.6 12.6256 93.2065 22.3486 96.5091L23.9252 93.867C23.9252 93.867 34.3217 99.1486 46.7953 99.1486C61.2568 99.1486 73.4275 93.8009 73.4275 93.8009L75.0039 96.4431C84.7269 93.1404 95.8952 79.5339 95.8952 79.5339L85.253 80.8551Z" stroke="white" stroke-width="1.16267" stroke-miterlimit="2" stroke-linecap="square"/>
<path d="M23.7279 93.7686L17.4209 90.2013L23.7935 81.7142" fill="#00A650"/>
<path d="M23.7279 93.7686L17.4209 90.2013L23.7935 81.7142" stroke="white" stroke-width="1.16267" stroke-miterlimit="2" stroke-linecap="square"/>
<path d="M17.3906 90.1634C17.3906 90.1634 18.0585 92.628 18.8469 93.1566C19.635 93.6847 21.9492 94.7454 22.344 96.4623L23.8451 93.8769L17.3906 90.1634Z" fill="#00A650"/>
<path d="M17.3906 90.1634C17.3906 90.1634 18.0585 92.628 18.8469 93.1566C19.635 93.6847 21.9492 94.7454 22.344 96.4623L23.8451 93.8769L17.3906 90.1634Z" stroke="white" stroke-width="1.16267" stroke-miterlimit="2" stroke-linecap="square"/>
<path d="M73.6355 93.7043L79.9118 90.4486L73.5308 81.6336" fill="#00A650"/>
<path d="M73.6355 93.7043L79.9118 90.4486L73.5308 81.6336" stroke="white" stroke-width="1.16267" stroke-miterlimit="2" stroke-linecap="square"/>
<path d="M79.9115 90.4486C79.9115 90.4486 79.6483 92.5618 78.8599 93.0904C78.0713 93.6195 75.3978 94.7258 75.0036 96.4431L73.4805 93.8247L79.9115 90.4486Z" fill="#00A650"/>
<path d="M79.9115 90.4486C79.9115 90.4486 79.6483 92.5618 78.8599 93.0904C78.0713 93.6195 75.3978 94.7258 75.0036 96.4431L73.4805 93.8247L79.9115 90.4486Z" stroke="white" stroke-width="1.16267" stroke-miterlimit="2" stroke-linecap="square"/>
<path d="M91.2564 44.6616C91.2564 68.305 72.1927 87.4715 48.6758 87.4715C25.1599 87.4715 6.09619 68.305 6.09619 44.6616C6.09619 21.0181 25.1599 1.85132 48.6758 1.85132C72.1927 1.85132 91.2564 21.0181 91.2564 44.6616Z" fill="white"/>
<path d="M91.2564 44.6616C91.2564 68.305 72.1927 87.4715 48.6758 87.4715C25.1599 87.4715 6.09619 68.305 6.09619 44.6616C6.09619 21.0181 25.1599 1.85132 48.6758 1.85132C72.1927 1.85132 91.2564 21.0181 91.2564 44.6616Z" stroke="#231F20" stroke-width="1.16267"/>
<path d="M37.2985 13.6822L39.1365 13.4959L40.4533 14.5176C40.0021 14.5822 37.4654 15.3123 36.3263 15.637C37.6659 16.2846 39.1593 16.5695 40.4218 17.5015C38.0001 18.2268 35.5534 15.2487 33.5448 17.1127C35.3222 17.4503 37.0733 18.0976 38.361 19.1589C35.3993 20.2984 32.5659 16.1034 30.2224 19.1589C32.0769 19.2625 33.7769 19.6249 35.3993 20.2984C32.6692 22.2403 28.8573 18.6152 26.8744 21.9553H27.6208C29.295 21.8261 31.3811 21.6448 33.0037 22.5252C30.8143 23.8198 28.2647 23.1725 25.7669 23.0949C25.2513 23.6907 24.3755 24.1562 24.2729 24.9589C26.1787 24.7519 28.033 24.4415 30.0161 24.5712L30.4022 24.9589C28.445 26.4875 25.3544 25.8399 23.165 26.2541C22.8303 26.8499 21.8775 27.6004 22.238 28.1183C24.0407 27.5227 26.3073 26.9535 28.1618 27.5488C26.2298 28.7141 23.9636 29.18 21.4912 29.2318C20.9765 29.8795 19.9716 31.0446 20.3837 31.8476C22.3665 30.8637 24.6076 29.8015 26.8744 29.983V30.1642C24.7878 31.7176 22.5985 32.883 20.0232 33.142C19.0444 33.5822 18.864 35.0069 18.7097 36.1464C20.8989 34.6439 23.2679 32.9608 25.7669 32.7796C23.8605 35.0581 21.1822 36.2237 18.529 37.0776C18.1173 38.01 17.7308 39.3565 18.1685 40.2366C20.0489 38.321 22.238 36.4564 24.6592 36.3272C22.8303 38.3725 20.3837 40.4703 17.7821 41.3511V44.147L20.3837 41.5318C21.4399 40.4703 22.8303 39.6416 24.0927 39.4862C22.6503 41.9199 20.1517 44.0698 17.7821 45.4684C17.937 46.1672 17.4733 47.5656 18.1685 48.2646C18.1943 47.798 18.864 47.5912 18.8903 47.1254C20.2034 45.4684 22.0064 42.9819 23.9124 42.6714C22.6503 45.261 20.5642 47.3584 18.1685 49.1964C18.4005 50.1549 18.4005 51.2941 18.8903 52.175L20.2034 49.5593C21.4399 48.2899 22.1095 45.9597 23.9124 45.8303C23.526 47.0991 22.8048 48.2125 22.238 49.3784C21.6459 51.3197 17.4221 52.6929 19.8169 54.9712L21.3108 51.7861C21.9029 50.6718 23.2167 49.1964 24.2729 48.9891C23.9889 50.3622 23.4487 51.6056 22.5985 52.7181C21.8256 54.583 18.6581 56.266 21.3108 58.3118C22.238 55.8002 22.8303 53.0029 25.1998 51.2426C25.1482 53.9358 23.397 56.4476 21.6714 58.7003C21.7745 59.581 22.4185 60.2281 22.9851 60.9272C23.5001 58.182 24.2729 55.5673 26.3073 53.4695C26.9769 54.6868 25.8439 55.6185 25.9467 56.8357C26.2298 59.296 21.3623 61.6779 25.02 63.5427C25.7669 61.0819 26.3591 58.4675 27.8007 56.266L28.1618 56.6549C28.033 59.2439 27.1058 61.4969 26.1269 63.7234C25.1482 65.0702 27.1572 65.7689 27.8007 66.5203C27.9819 63.776 27.9819 60.9787 29.6557 58.8812C29.6557 61.393 29.8358 64.9403 28.7283 67.453C29.9389 68.0222 30.7631 69.3172 32.0769 69.7057C31.0978 67.1676 30.7115 63.7234 31.6903 61.108C32.9523 63.776 33.1326 67.0896 33.0037 70.0675C33.8279 70.9488 35.1157 71.5172 36.3263 71.9323L34.8577 68.3854C34.5235 66.8046 33.8796 64.9403 34.6521 63.3611C35.7334 66.1579 37.1245 68.8506 37.0733 72.1133C38.1808 72.6835 39.5202 73.5122 40.6015 73.227C39.0561 70.7669 37.5369 68.0222 38.1808 64.8369C39.9838 67.6079 40.6536 70.8187 41.8896 73.7966L46.5253 74.3669L45.5983 77.5253C43.8472 77.7585 42.2755 78.5103 40.6015 79.0279C38.6447 80.1404 36.6099 81.073 34.4717 81.8237C33.3134 81.3584 31.5615 80.7879 31.5097 79.208C34.5747 77.5773 38.2325 77.1116 41.3486 76.0234L38.747 75.4796C35.0382 77.1623 30.1192 77.6545 25.9467 76.5931C29.3724 75.1947 33.6993 74.6248 37.2536 74.9098L34.6521 73.7966C31.2272 74.133 27.5178 74.781 24.0927 73.9774C23.3455 73.9007 22.5216 73.4343 22.0577 73.0461C25.2513 72.1661 29.8876 72.3466 32.6173 72.8646L30.4022 71.3623C26.0757 70.87 21.414 71.1296 17.7821 68.9546L17.9628 68.7734C21.4912 68.6173 25.3544 68.7991 28.548 70.0675L26.1269 68.2035C22.3665 68.0743 18.4005 67.3233 15.1815 65.2254C18.1943 64.5775 21.9029 65.458 24.8394 66.7016C24.2729 66.1061 23.526 65.5364 23.165 64.8369C19.6368 64.1381 16.0312 63.6456 13.3267 60.9272C16.572 60.383 19.1733 62.481 22.0577 63.3611L20.9502 61.8591C17.4733 61.2631 14.3568 59.632 11.6781 57.0169C14.8718 56.7834 17.7308 59.3995 20.2034 60.5652L19.0958 58.7003C15.928 57.4834 12.8632 55.5673 10.5448 52.7181C13.4814 52.822 15.9794 55.1525 18.3494 57.1988C18.0138 54.4533 14.7173 54.22 13.1463 52.175C12.0905 51.0612 10.6483 49.8957 10.5448 48.6273C13.0948 49.5593 15.2843 51.8379 17.2412 53.858C17.4733 50.6718 13.7644 50.5953 12.3996 48.057C11.5235 46.9438 10.2875 45.7787 10.3648 44.5353C12.6828 45.5977 15.1042 48.4975 16.3142 50.1289C16.5464 47.3584 13.3783 45.9598 12.2194 43.7848C11.5235 42.6195 10.8801 41.2214 10.751 40.0557C12.9661 41.6872 14.6915 44.147 15.7476 46.5814C17.4221 42.2311 10.777 38.9684 11.2914 34.2815C13.713 36.2237 14.7692 39.0715 15.928 41.7391C15.7987 40.7553 16.1596 40.0038 16.3142 39.1239C14.2534 36.56 13.018 33.4268 12.7857 30.3453C14.6399 32.2095 15.9794 35.2133 16.4944 37.2595C18.2458 34.3072 15.1042 32.0804 15.0009 29.2318C14.7692 28.2216 14.5889 26.7719 15.1815 25.8916C16.34 28.2216 17.4991 30.5525 17.6018 33.3491C19.688 30.7853 16.572 27.8337 17.2412 24.9589C17.4733 24.0269 17.4733 22.9912 17.9628 22.1629C18.9415 24.3893 19.1216 27.0048 19.276 29.6206L20.3837 27.5488C19.508 25.3216 19.2248 22.6287 19.6368 20.0912C20.0232 19.91 19.6368 19.3146 20.2034 19.3658C21.0792 21.7223 20.7959 24.0269 21.1302 26.4352L22.4185 24.5712C22.0064 21.9296 21.5428 18.9777 22.8048 16.5695C23.8088 18.5114 23.165 21.541 23.3455 23.4577L24.8394 21.7739C24.5561 18.8479 25.1225 16.0518 26.5135 13.9542C27.1572 16.2846 26.1269 18.4338 25.9467 20.6606C26.5396 20.0912 27.1058 19.3658 27.8007 18.9777C27.8007 15.8184 29.0119 13.2025 30.7631 10.7689C30.9177 13.3067 29.7585 15.7149 28.9083 18.0454L31.3298 16.3622C31.7935 13.7724 32.7978 11.3906 35.0382 9.47474C34.9351 11.6755 33.4929 13.7724 32.437 15.8184C36.2748 15.7149 37.2424 9.36185 40.2915 8.1311L37.2985 13.6822Z" fill="#00A650"/>
<path d="M60.06 13.6822L58.2225 13.4959L56.9055 14.5176C57.3569 14.5822 59.8931 15.3123 61.0322 15.637C59.6928 16.2846 58.1997 16.5695 56.9372 17.5015C59.3585 18.2268 61.8053 15.2487 63.8141 17.1127C62.0368 17.4503 60.2858 18.0976 58.9979 19.1589C61.9599 20.2984 64.7925 16.1034 67.1366 19.1589C65.2821 19.2625 63.5823 19.6249 61.9599 20.2984C64.69 22.2403 68.5013 18.6152 70.4842 21.9553H69.7381C68.0641 21.8261 65.9778 21.6448 64.3549 22.5252C66.5446 23.8198 69.0942 23.1725 71.592 23.0949C72.108 23.6907 72.9834 24.1562 73.0857 24.9589C71.1803 24.7519 69.3262 24.4415 67.3427 24.5712L66.9568 24.9589C68.9137 26.4875 72.0045 25.8399 74.1936 26.2541C74.5282 26.8499 75.4815 27.6004 75.121 28.1183C73.3181 27.5227 71.0517 26.9535 69.1974 27.5488C71.1291 28.7141 73.3952 29.18 75.8675 29.2318C76.3823 29.8795 77.3872 31.0446 76.9751 31.8476C74.9924 30.8637 72.7514 29.8015 70.4842 29.983V30.1642C72.5705 31.7176 74.7606 32.883 77.3358 33.142C78.3146 33.5822 78.495 35.0069 78.6495 36.1464C76.4599 34.6439 74.0907 32.9608 71.592 32.7796C73.4978 35.0581 76.1763 36.2237 78.8294 37.0776C79.2413 38.01 79.6278 39.3565 79.1901 40.2366C77.3096 38.321 75.121 36.4564 72.6993 36.3272C74.5282 38.3725 76.9751 40.4703 79.5768 41.3511V44.147L76.9751 41.5318C75.9188 40.4703 74.5282 39.6416 73.2662 39.4862C74.7085 41.9199 77.2073 44.0698 79.5768 45.4684C79.4219 46.1672 79.8858 47.5656 79.1901 48.2646C79.1647 47.798 78.495 47.5912 78.4688 47.1254C77.1552 45.4684 75.3525 42.9819 73.4462 42.6714C74.7085 45.261 76.7944 47.3584 79.1901 49.1964C78.9585 50.1549 78.9585 51.2941 78.4688 52.175L77.1552 49.5593C75.9188 48.2899 75.2494 45.9597 73.4462 45.8303C73.8331 47.0991 74.5541 48.2125 75.121 49.3784C75.713 51.3197 79.9368 52.6929 77.542 54.9712L76.0478 51.7861C75.4557 50.6718 74.142 49.1964 73.0857 48.9891C73.3696 50.3622 73.9102 51.6056 74.7607 52.7181C75.5329 54.583 78.7006 56.266 76.0478 58.3118C75.121 55.8002 74.5282 53.0029 72.1592 51.2426C72.2108 53.9358 73.9616 56.4476 75.6874 58.7003C75.5845 59.581 74.9407 60.2281 74.3735 60.9272C73.8594 58.182 73.0857 55.5673 71.0517 53.4695C70.3822 54.6868 71.5151 55.6185 71.4119 56.8357C71.1291 59.296 75.9969 61.6779 72.3391 63.5427C71.592 61.0819 70.9995 58.4675 69.5577 56.266L69.1974 56.6549C69.3261 59.2439 70.2526 61.4969 71.2318 63.7234C72.2108 65.0702 70.202 65.7689 69.5577 66.5203C69.3767 63.776 69.3767 60.9787 67.7034 58.8812C67.7034 61.393 67.5229 64.9403 68.6305 67.453C67.4201 68.0222 66.5954 69.3172 65.2821 69.7057C66.2607 67.1676 66.6477 63.7234 65.6682 61.108C64.4065 63.776 64.2263 67.0896 64.3549 70.0675C63.5311 70.9488 62.2428 71.5172 61.0322 71.9323L62.5009 68.3854C62.8356 66.8046 63.4792 64.9403 62.7069 63.3611C61.6255 66.1579 60.2341 68.8506 60.2858 72.1133C59.1778 72.6835 57.8386 73.5122 56.7571 73.227C58.3024 70.7669 59.8217 68.0222 59.1778 64.8369C57.3751 67.6079 56.7053 70.8187 55.4693 73.7966L50.833 74.3669L51.7608 77.5253C53.5116 77.7585 55.0829 78.5103 56.7571 79.0279C58.7142 80.1404 60.7493 81.073 62.8869 81.8237C64.0455 81.3584 65.7974 80.7879 65.8493 79.208C62.7841 77.5773 59.1266 77.1116 56.0107 76.0234L58.6118 75.4796C62.3208 77.1623 67.2397 77.6545 71.4119 76.5931C67.9864 75.1947 63.6596 74.6248 60.1055 74.9098L62.7069 73.7966C66.1318 74.133 69.8408 74.781 73.2662 73.9774C74.0134 73.9007 74.8376 73.4343 75.3013 73.0461C72.108 72.1661 67.4712 72.3466 64.7417 72.8646L66.9568 71.3623C71.2833 70.87 75.945 71.1296 79.5768 68.9546L79.3963 68.7734C75.8675 68.6173 72.0045 68.7991 68.811 70.0675L71.2318 68.2035C74.9924 68.0743 78.9585 67.3233 82.1779 65.2254C79.1647 64.5775 75.4557 65.458 72.5193 66.7016C73.0857 66.1061 73.8331 65.5364 74.1936 64.8369C77.7225 64.1381 81.3275 63.6456 84.0326 60.9272C80.7872 60.383 78.1854 62.481 75.3013 63.3611L76.4088 61.8591C79.8858 61.2631 83.002 59.632 85.6806 57.0169C82.4865 56.7834 79.6278 59.3995 77.1552 60.5652L78.2626 58.7003C81.4303 57.4834 84.4956 55.5673 86.8138 52.7181C83.8776 52.822 81.3795 55.1525 79.0096 57.1988C79.3447 54.4533 82.6415 54.22 84.2126 52.175C85.268 51.0612 86.7107 49.8957 86.8138 48.6273C84.2641 49.5593 82.0744 51.8379 80.1178 53.858C79.8858 50.6718 83.5943 50.5953 84.9591 48.057C85.8352 46.9438 87.0719 45.7787 86.994 44.5353C84.6759 45.5977 82.2549 48.4975 81.0443 50.1289C80.8128 47.3584 83.9811 45.9598 85.14 43.7848C85.8352 42.6195 86.479 41.2214 86.6073 40.0557C84.3925 41.6872 82.6673 44.147 81.6108 46.5814C79.9368 42.2311 86.5813 38.9684 86.0673 34.2815C83.6456 36.2237 82.5897 39.0715 81.4303 41.7391C81.5603 40.7553 81.1989 40.0038 81.0443 39.1239C83.1053 36.56 84.3412 33.4268 84.5727 30.3453C82.7189 32.2095 81.3795 35.2133 80.8642 37.2595C79.1131 34.3072 82.2549 32.0804 82.3581 29.2318C82.5897 28.2216 82.7705 26.7719 82.1779 25.8916C81.019 28.2216 79.8598 30.5525 79.7567 33.3491C77.671 30.7853 80.7872 27.8337 80.1178 24.9589C79.8858 24.0269 79.8858 22.9912 79.3963 22.1629C78.4174 24.3893 78.2378 27.0048 78.083 29.6206L76.9751 27.5488C77.851 25.3216 78.1338 22.6287 77.7225 20.0912C77.3358 19.91 77.7225 19.3146 77.1552 19.3658C76.2796 21.7223 76.5631 24.0269 76.229 26.4352L74.9407 24.5712C75.3525 21.9296 75.8161 18.9777 74.5541 16.5695C73.5499 18.5114 74.1936 21.541 74.0134 23.4577L72.5193 21.7739C72.8026 18.8479 72.2365 16.0518 70.8451 13.9542C70.202 16.2846 71.2318 18.4338 71.4119 20.6606C70.8197 20.0912 70.2526 19.3658 69.5577 18.9777C69.5577 15.8184 68.3469 13.2025 66.5954 10.7689C66.4413 13.3067 67.5999 15.7149 68.4503 18.0454L66.0292 16.3622C65.5654 13.7724 64.5612 11.3906 62.3208 9.47474C62.4232 11.6755 63.8662 13.7724 64.922 15.8184C61.0841 15.7149 60.1166 9.36185 57.0674 8.1311L60.06 13.6822Z" fill="#00A650"/>
<path d="M62.0944 25.5176C61.1259 25.3034 59.5875 24.6376 58.3575 24.1623C49.9132 21.7121 41.3984 24.7092 35.8637 31.5103C31.8187 37.2177 31.8187 46.0647 35.1781 52.0575C39.6958 59.3343 47.6194 62.5443 56.1344 61.4747L59.8714 60.4517C54.0532 64.3997 44.8513 64.7321 38.5837 61.4747C30.2108 57.1707 25.693 48.3003 26.8517 38.8819C27.5144 31.5103 34.161 24.5428 40.9727 22.2832C47.9262 20.0005 56.5118 20.8567 62.0944 25.5176Z" fill="#DB1F26"/>
<path d="M52.386 77.6345L52.3783 74.1896H45.0875L44.9971 77.6345H52.386Z" fill="#DB1F26"/>
<path d="M52.386 77.6345L52.3783 74.1896H45.0875L44.9971 77.6345H52.386Z" stroke="#231F20" stroke-width="0.150667" stroke-miterlimit="2" stroke-linecap="square"/>
<path d="M47.1892 77.6183C47.1892 77.6183 43.0975 80.3854 40.6509 81.2918C41.2302 81.9389 43.9341 81.4207 43.9341 81.4207C43.9341 81.4207 44.3202 82.5208 43.7409 83.6866C46.6948 82.3673 48.5837 77.6299 48.5837 77.6299L47.1892 77.6183Z" fill="#DB1F26"/>
<path d="M47.1892 77.6183C47.1892 77.6183 43.0975 80.3854 40.6509 81.2918C41.2302 81.9389 43.9341 81.4207 43.9341 81.4207C43.9341 81.4207 44.3202 82.5208 43.7409 83.6866C46.6948 82.3673 48.5837 77.6299 48.5837 77.6299L47.1892 77.6183Z" stroke="#231F20" stroke-width="0.150667" stroke-miterlimit="2" stroke-linecap="square"/>
<path d="M49.9785 77.6297C49.9785 77.6297 54.0759 80.3523 56.5226 81.2591C55.9425 81.9066 53.2389 81.3877 53.2389 81.3877C53.2389 81.3877 52.8522 82.4889 53.4319 83.6545C51.1136 82.6185 48.5381 77.6335 48.5381 77.6335L49.9785 77.6297Z" fill="#DB1F26"/>
<path d="M49.9785 77.6297C49.9785 77.6297 54.0759 80.3523 56.5226 81.2591C55.9425 81.9066 53.2389 81.3877 53.2389 81.3877C53.2389 81.3877 52.8522 82.4889 53.4319 83.6545C51.1136 82.6185 48.5381 77.6335 48.5381 77.6335L49.9785 77.6297Z" stroke="#231F20" stroke-width="0.150667" stroke-miterlimit="2" stroke-linecap="square"/>
<path d="M51.2932 68.0992L48.5563 73.7212L45.8204 68.0992H44.0977L47.0598 74.1839H48.3319H48.7825H50.0542L53.0159 68.0992H51.2932Z" fill="#DB1F26"/>
<path d="M51.2932 68.0992L48.5563 73.7212L45.8204 68.0992H44.0977L47.0598 74.1839H48.3319H48.7825H50.0542L53.0159 68.0992H51.2932Z" stroke="#231F20" stroke-width="0.150667" stroke-miterlimit="2" stroke-linecap="square"/>
<path d="M52.1627 66.3878L53.0181 68.0757L44.0977 68.0707L44.9511 66.3878H52.1627Z" fill="#DB1F26"/>
<path d="M52.1627 66.3878L53.0181 68.0757L44.0977 68.0707L44.9511 66.3878H52.1627Z" stroke="#231F20" stroke-width="0.150667" stroke-miterlimit="2" stroke-linecap="square"/>
<path d="M46.9059 30.3892L44.7549 26.9708C44.7549 26.9708 44.705 26.4679 45.1049 26.7192C45.5046 26.9708 47.2053 30.0375 47.2053 30.0375L46.9059 30.3892Z" fill="#D3D2D2"/>
<path d="M46.9059 30.3892L44.7549 26.9708C44.7549 26.9708 44.705 26.4679 45.1049 26.7192C45.5046 26.9708 47.2053 30.0375 47.2053 30.0375L46.9059 30.3892Z" stroke="#231F20" stroke-width="0.388" stroke-miterlimit="2" stroke-linecap="square"/>
<path d="M47.9061 30.0375L46.2555 27.2727C46.2555 27.2727 45.8553 26.9708 46.356 26.6688C46.8555 26.367 46.5225 26.2717 46.206 26.317C45.8555 26.367 45.7556 26.6688 45.5051 26.2162C45.5051 26.2162 44.9055 25.9144 45.006 26.4173L47.306 30.0878L47.9061 30.0375Z" fill="#D3D2D2"/>
<path d="M47.9061 30.0375L46.2555 27.2727C46.2555 27.2727 45.8553 26.9708 46.356 26.6688C46.8555 26.367 46.5225 26.2717 46.206 26.317C45.8555 26.367 45.7556 26.6688 45.5051 26.2162C45.5051 26.2162 44.9055 25.9144 45.006 26.4173L47.306 30.0878L47.9061 30.0375Z" stroke="#231F20" stroke-width="0.388" stroke-miterlimit="2" stroke-linecap="square"/>
<path d="M58.707 30.5902L60.8584 27.1715C60.8584 27.1715 60.9077 26.6686 60.5074 26.92C60.1072 27.1715 58.4077 30.2386 58.4077 30.2386L58.707 30.5902Z" fill="#D3D2D2"/>
<path d="M58.707 30.5902L60.8584 27.1715C60.8584 27.1715 60.9077 26.6686 60.5074 26.92C60.1072 27.1715 58.4077 30.2386 58.4077 30.2386L58.707 30.5902Z" stroke="#231F20" stroke-width="0.388" stroke-miterlimit="2" stroke-linecap="square"/>
<path d="M57.7075 30.2385L59.3579 27.4725C59.3579 27.4725 59.7577 27.1716 59.2578 26.8701C58.7579 26.5682 59.0905 26.472 59.4082 26.5179C59.7577 26.5682 59.8578 26.8701 60.1071 26.4174C60.1071 26.4174 60.7074 26.1159 60.6078 26.6183L58.3081 30.2885L57.7075 30.2385Z" fill="#D3D2D2"/>
<path d="M57.7075 30.2385L59.3579 27.4725C59.3579 27.4725 59.7577 27.1716 59.2578 26.8701C58.7579 26.5682 59.0905 26.472 59.4082 26.5179C59.7577 26.5682 59.8578 26.8701 60.1071 26.4174C60.1071 26.4174 60.7074 26.1159 60.6078 26.6183L58.3081 30.2885L57.7075 30.2385Z" stroke="#231F20" stroke-width="0.388" stroke-miterlimit="2" stroke-linecap="square"/>
<path d="M55.535 54.5088L56.6339 55.1768C56.6339 55.1768 55.3074 56.1666 54.3197 55.8307C53.3304 55.4946 53.6642 54.5004 53.6642 54.5004L53.6784 50.2409C53.0831 50.3528 51.941 50.3386 51.2345 50.2204L51.2164 54.4903C51.2164 54.4903 51.5429 55.4867 50.5506 55.8149C49.559 56.1432 48.2425 55.1413 48.2425 55.1413L49.346 54.4823L46.3769 53.8057L46.1445 56.7926L46.9187 56.0205C46.9187 56.0205 47.6832 57.2408 48.4523 57.5761C49.0939 57.8562 51.2078 58.5428 52.0383 59.5295L52.4163 60.1769L52.7998 59.5326C53.6397 58.5524 55.7597 57.8839 56.403 57.6093C57.1744 57.2805 57.9502 56.0672 57.9502 56.0672L58.717 56.8443L58.5092 53.8562L55.535 54.5088Z" fill="#D3D2D2"/>
<path d="M55.535 54.5088L56.6339 55.1768C56.6339 55.1768 55.3074 56.1666 54.3197 55.8307C53.3304 55.4946 53.6642 54.5004 53.6642 54.5004L53.6784 50.2409C53.0831 50.3528 51.941 50.3386 51.2345 50.2204L51.2164 54.4903C51.2164 54.4903 51.5429 55.4867 50.5506 55.8149C49.559 56.1432 48.2425 55.1413 48.2425 55.1413L49.346 54.4823L46.3769 53.8057L46.1445 56.7926L46.9187 56.0205C46.9187 56.0205 47.6832 57.2408 48.4523 57.5761C49.0939 57.8562 51.2078 58.5428 52.0383 59.5295L52.4163 60.1769L52.7998 59.5326C53.6397 58.5524 55.7597 57.8839 56.403 57.6093C57.1744 57.2805 57.9502 56.0672 57.9502 56.0672L58.717 56.8443L58.5092 53.8562L55.535 54.5088Z" stroke="#231F20" stroke-width="0.388" stroke-miterlimit="2" stroke-linecap="square"/>
<path d="M65.6143 31.5034C65.6143 31.5034 63.3141 34.0174 58.7134 37.1343C58.7134 37.1343 57.7905 36.0304 57.0723 35.604C57.0723 35.604 61.7138 32.8108 65.6143 31.5034Z" fill="#F0CF09"/>
<path d="M65.6143 31.5034C65.6143 31.5034 63.3141 34.0174 58.7134 37.1343C58.7134 37.1343 57.7905 36.0304 57.0723 35.604C57.0723 35.604 61.7138 32.8108 65.6143 31.5034Z" stroke="#231F20" stroke-width="0.388" stroke-miterlimit="2" stroke-linecap="square"/>
<path d="M45.9586 46.7606C45.9586 46.7606 43.8752 48.8998 43.4946 49.4733C43.1142 50.0466 41.2119 51.5769 41.2119 51.5769C41.2119 51.5769 40.9744 52.008 40.5465 51.3861C40.1182 50.7642 37.4073 46.3648 37.4073 46.3648C37.4073 46.3648 37.0746 45.9353 37.7407 45.6476C38.406 45.3615 39.9279 44.3092 42.1158 43.6398C44.3035 42.9702 44.5947 42.8118 44.5947 42.7442C44.5947 42.6769 44.6502 44.9229 45.9586 46.7606Z" fill="#F0CF09"/>
<path d="M45.9586 46.7606C45.9586 46.7606 43.8752 48.8998 43.4946 49.4733C43.1142 50.0466 41.2119 51.5769 41.2119 51.5769C41.2119 51.5769 40.9744 52.008 40.5465 51.3861C40.1182 50.7642 37.4073 46.3648 37.4073 46.3648C37.4073 46.3648 37.0746 45.9353 37.7407 45.6476C38.406 45.3615 39.9279 44.3092 42.1158 43.6398C44.3035 42.9702 44.5947 42.8118 44.5947 42.7442C44.5947 42.6769 44.6502 44.9229 45.9586 46.7606Z" stroke="#231F20" stroke-width="0.388" stroke-miterlimit="2" stroke-linecap="square"/>
<path d="M45.3771 45.7512L37.6931 50.9912C37.6931 50.9912 37.2332 51.4436 36.9396 50.9973C36.5039 50.3338 36.0853 49.5982 36.0853 49.5982C36.0853 49.5982 35.8996 49.3493 36.3345 49.0943C36.745 48.8538 44.74 43.802 44.74 43.802C44.74 43.802 44.8994 44.8811 45.3771 45.7512Z" fill="#F0CF09"/>
<path d="M45.3771 45.7512L37.6931 50.9912C37.6931 50.9912 37.2332 51.4436 36.9396 50.9973C36.5039 50.3338 36.0853 49.5982 36.0853 49.5982C36.0853 49.5982 35.8996 49.3493 36.3345 49.0943C36.745 48.8538 44.74 43.802 44.74 43.802C44.74 43.802 44.8994 44.8811 45.3771 45.7512Z" stroke="#231F20" stroke-width="0.388" stroke-miterlimit="2" stroke-linecap="square"/>
<path d="M40.1813 51.6757L37.0422 46.5596C37.0422 46.5596 36.9949 46.1766 36.4717 46.5121C35.9485 46.8465 35.711 46.9894 35.711 46.9894C35.711 46.9894 35.3781 46.9894 35.6633 47.5634C35.9485 48.1378 38.7545 52.5357 38.7545 52.5357C38.7545 52.5357 38.8971 52.9177 39.373 52.6793C39.8489 52.4405 40.1338 52.2493 40.1338 52.2493C40.1338 52.2493 40.5137 52.2017 40.1813 51.6757Z" fill="#F0CF09"/>
<path d="M40.1813 51.6757L37.0422 46.5596C37.0422 46.5596 36.9949 46.1766 36.4717 46.5121C35.9485 46.8465 35.711 46.9894 35.711 46.9894C35.711 46.9894 35.3781 46.9894 35.6633 47.5634C35.9485 48.1378 38.7545 52.5357 38.7545 52.5357C38.7545 52.5357 38.8971 52.9177 39.373 52.6793C39.8489 52.4405 40.1338 52.2493 40.1338 52.2493C40.1338 52.2493 40.5137 52.2017 40.1813 51.6757Z" stroke="#231F20" stroke-width="0.388" stroke-miterlimit="2" stroke-linecap="square"/>
<path d="M47.4129 48.4104C47.9218 48.8528 48.5344 49.2039 48.5344 49.2039C48.5344 49.2039 48.1559 49.8231 47.5559 49.6724C47.5559 49.6724 48.4055 52.3877 45.8055 52.3373L44.2048 57.4158C44.2048 57.4158 44.2552 58.3205 43.4052 57.717C43.4052 57.717 41.9548 56.5096 41.1544 56.1586C40.3548 55.8065 41.0546 56.0571 41.0546 56.0571C41.0546 56.0571 40.4043 55.9574 40.8547 55.3042C40.8547 55.3042 43.0052 51.6334 43.205 51.483C43.4052 51.3315 43.5551 51.2308 43.6555 50.5269C43.6555 50.5269 43.7052 50.2255 44.0555 50.4265C44.0555 50.4265 45.8552 50.6273 46.1051 47.7113C46.1051 47.7113 46.3356 47.7135 46.5128 47.4916C46.5223 47.4797 46.9228 47.9846 47.4129 48.4104Z" fill="#AC372A"/>
<path d="M47.4129 48.4104C47.9218 48.8528 48.5344 49.2039 48.5344 49.2039C48.5344 49.2039 48.1559 49.8231 47.5559 49.6724C47.5559 49.6724 48.4055 52.3877 45.8055 52.3373L44.2048 57.4158C44.2048 57.4158 44.2552 58.3205 43.4052 57.717C43.4052 57.717 41.9548 56.5096 41.1544 56.1586C40.3548 55.8065 41.0546 56.0571 41.0546 56.0571C41.0546 56.0571 40.4043 55.9574 40.8547 55.3042C40.8547 55.3042 43.0052 51.6334 43.205 51.483C43.4052 51.3315 43.5551 51.2308 43.6555 50.5269C43.6555 50.5269 43.7052 50.2255 44.0555 50.4265C44.0555 50.4265 45.8552 50.6273 46.1051 47.7113C46.1051 47.7113 46.3356 47.7135 46.5128 47.4916C46.5223 47.4797 46.9228 47.9846 47.4129 48.4104Z" stroke="#231F20" stroke-width="0.388" stroke-miterlimit="2" stroke-linecap="square"/>
<path d="M57.6528 48.4939C57.151 48.9303 56.5483 49.2704 56.5483 49.2704C56.5483 49.2704 56.9483 49.9235 57.5486 49.7731C57.5486 49.7731 56.6986 52.4878 59.2982 52.4378L60.8989 57.5159C60.8989 57.5159 60.8493 58.4209 61.6996 57.8172C61.6996 57.8172 63.1489 56.6115 63.9496 56.2586C64.7496 55.9068 64.0497 56.1586 64.0497 56.1586C64.0497 56.1586 64.6994 56.0572 64.2501 55.4046C64.2501 55.4046 62.099 51.7342 61.8985 51.5835C61.6995 51.4323 61.549 51.3318 61.449 50.6273C61.449 50.6273 61.3987 50.3262 61.0489 50.5269C61.0489 50.5269 59.2487 50.7289 58.9989 47.812C58.7082 47.7677 58.6345 47.6572 58.5736 47.5892C58.5583 47.5719 58.1434 48.0672 57.6528 48.4939Z" fill="#AC372A"/>
<path d="M57.6528 48.4939C57.151 48.9303 56.5483 49.2704 56.5483 49.2704C56.5483 49.2704 56.9483 49.9235 57.5486 49.7731C57.5486 49.7731 56.6986 52.4878 59.2982 52.4378L60.8989 57.5159C60.8989 57.5159 60.8493 58.4209 61.6996 57.8172C61.6996 57.8172 63.1489 56.6115 63.9496 56.2586C64.7496 55.9068 64.0497 56.1586 64.0497 56.1586C64.0497 56.1586 64.6994 56.0572 64.2501 55.4046C64.2501 55.4046 62.099 51.7342 61.8985 51.5835C61.6995 51.4324 61.549 51.3318 61.449 50.6273C61.449 50.6273 61.3987 50.3262 61.0489 50.5269C61.0489 50.5269 59.2487 50.7289 58.9989 47.812C58.7082 47.7677 58.6345 47.6572 58.5736 47.5892C58.5583 47.5719 58.1434 48.0672 57.6528 48.4939Z" stroke="#231F20" stroke-width="0.388" stroke-miterlimit="2" stroke-linecap="square"/>
<path d="M49.9435 34.6969L51.1224 34.382L48.4054 29.9629L47.4556 29.9127C47.4556 29.9127 47.2056 29.8628 46.7556 30.2646C46.3057 30.6667 46.7062 30.8174 46.7062 30.8174L49.133 35.0488L49.9435 34.6969Z" fill="#AC372A"/>
<path d="M49.9435 34.6969L51.1224 34.382L48.4054 29.9629L47.4556 29.9127C47.4556 29.9127 47.2056 29.8628 46.7556 30.2646C46.3057 30.6667 46.7062 30.8174 46.7062 30.8174L49.133 35.0488L49.9435 34.6969Z" stroke="#231F20" stroke-width="0.388" stroke-miterlimit="2" stroke-linecap="square"/>
<path d="M55.4143 34.7896L54.5303 34.512L57.207 30.1643L58.1569 30.114C58.1569 30.114 58.4074 30.0634 58.858 30.4661C59.3072 30.8684 58.9074 31.019 58.9074 31.019L56.4827 35.2895L55.4143 34.7896Z" fill="#AC372A"/>
<path d="M55.4143 34.7896L54.5303 34.512L57.207 30.1643L58.1569 30.114C58.1569 30.114 58.4074 30.0634 58.858 30.4661C59.3072 30.8684 58.9074 31.019 58.9074 31.019L56.4827 35.2895L55.4143 34.7896Z" stroke="#231F20" stroke-width="0.388" stroke-miterlimit="2" stroke-linecap="square"/>
<path d="M60.4058 44.0309L62.1078 45.0973L61.0011 46.637L59.835 45.7165L60.4058 44.0309Z" fill="#F0CF09"/>
<path d="M60.4058 44.0309L62.1078 45.0973L61.0011 46.637L59.835 45.7165L60.4058 44.0309Z" stroke="#231F20" stroke-width="0.388" stroke-miterlimit="2" stroke-linecap="square"/>
<path d="M63.0582 45.5997L62.558 45.2979L61.2822 46.9764L61.7894 47.3166L63.0582 45.5997Z" fill="#F0CF09"/>
<path d="M63.0582 45.5997L62.558 45.2979L61.2822 46.9764L61.7894 47.3166L63.0582 45.5997Z" stroke="#231F20" stroke-width="0.388" stroke-miterlimit="2" stroke-linecap="square"/>
<path d="M63.6079 45.6501L61.958 47.7695L62.4575 48.1137L64.108 45.9012L63.6079 45.6501Z" fill="#F0CF09"/>
<path d="M63.6079 45.6501L61.958 47.7695L62.4575 48.1137L64.108 45.9012L63.6079 45.6501Z" stroke="#231F20" stroke-width="0.388" stroke-miterlimit="2" stroke-linecap="square"/>
<path d="M62.709 48.6666L65.2584 50.4265L64.9589 50.8293L65.8586 51.5829L66.2593 51.2309L67.0086 51.7839L68.9595 49.1694L64.7083 46.0021L62.709 48.6666Z" fill="#F0CF09"/>
<path d="M62.709 48.6666L65.2584 50.4265L64.9589 50.8293L65.8586 51.5829L66.2593 51.2309L67.0086 51.7839L68.9595 49.1694L64.7083 46.0021L62.709 48.6666Z" stroke="#231F20" stroke-width="0.388" stroke-miterlimit="2" stroke-linecap="square"/>
<path d="M65.0024 45.5684L69.2563 48.7796L69.544 48.3487L68.9925 47.8818L69.9459 46.2673L69.5957 46.0084L68.5914 47.5703L66.139 45.705L66.6891 44.955L66.1819 44.5466L65.7364 45.3414L65.3881 45.0818L65.0024 45.5684Z" fill="#F0CF09"/>
<path d="M65.0024 45.5684L69.2563 48.7796L69.544 48.3487L68.9925 47.8818L69.9459 46.2673L69.5957 46.0084L68.5914 47.5703L66.139 45.705L66.6891 44.955L66.1819 44.5466L65.7364 45.3414L65.3881 45.0818L65.0024 45.5684Z" stroke="#231F20" stroke-width="0.388" stroke-miterlimit="2" stroke-linecap="square"/>
<path d="M69.7441 48.7963L66.957 52.4705L67.3776 52.7867L70.2175 49.0935L69.7441 48.7963Z" fill="#F0CF09"/>
<path d="M69.7441 48.7963L66.957 52.4705L67.3776 52.7867L70.2175 49.0935L69.7441 48.7963Z" stroke="#231F20" stroke-width="0.388" stroke-miterlimit="2" stroke-linecap="square"/>
<path d="M47.987 35.7242L42.5155 31.8601L41.7153 32.8152L46.8804 36.6784L47.987 35.7242Z" fill="#F0CF09"/>
<path d="M47.987 35.7242L42.5155 31.8601L41.7153 32.8152L46.8804 36.6784L47.987 35.7242Z" stroke="#231F20" stroke-width="0.388" stroke-miterlimit="2" stroke-linecap="square"/>
<path d="M42.0655 31.6088L41.3154 32.4635L39.0151 31.4078L40.2153 29.8992L42.0655 31.6088Z" fill="#F0CF09"/>
<path d="M42.0655 31.6088L41.3154 32.4635L39.0151 31.4078L40.2153 29.8992L42.0655 31.6088Z" stroke="#231F20" stroke-width="0.388" stroke-miterlimit="2" stroke-linecap="square"/>
<path d="M60.3726 40.4456C60.3726 40.4456 60.5824 41.2892 60.6248 41.753" stroke="#231F20" stroke-width="0.193333" stroke-miterlimit="2" stroke-linecap="square"/>
<path d="M44.7607 39.1799C44.7607 39.1799 44.5094 39.5174 44.4668 40.2345" stroke="#231F20" stroke-width="0.388" stroke-miterlimit="2" stroke-linecap="square"/>
<path d="M45.0541 39.2224C45.0541 39.2224 44.8447 39.8128 44.8447 40.1502" stroke="#231F20" stroke-width="0.388" stroke-miterlimit="2" stroke-linecap="square"/>
<path d="M44.719 40.4456C44.719 40.4456 44.5093 41.2892 44.4668 41.753" stroke="#231F20" stroke-width="0.388" stroke-miterlimit="2" stroke-linecap="square"/>
<path d="M44.8043 40.549L45.2649 39.049C45.2649 39.049 43.8949 39.3069 44.314 38.0835C44.7337 36.8605 44.1043 36.3123 43.6011 36.4808C43.6011 36.4808 40.4972 36.6912 39.868 36.3967C39.868 36.3967 39.8253 36.5655 40.0776 36.7343C40.3294 36.9027 40.4553 36.9454 40.4553 36.9454C40.4553 36.9454 36.9731 37.0298 36.0925 36.3123C36.0925 36.3123 35.2117 36.1015 35.7148 36.65C35.7148 36.65 36.2601 37.24 36.6376 37.4509L36.0511 37.282C36.0511 37.282 35.6731 37.3243 35.9253 37.873C35.9253 37.873 36.3445 38.3367 37.0995 38.5892C37.0995 38.5892 36.8895 38.7165 36.6793 38.5892C36.6793 38.5892 36.2601 38.7165 36.7219 39.0959C36.7219 39.0959 37.8128 39.5597 38.777 39.5597C38.777 39.5597 37.603 39.8974 38.777 40.3608C38.777 40.3608 39.3644 40.53 39.9097 40.3608C39.9097 40.3608 39.2803 41.2893 40.6226 40.9098C40.6226 40.9098 40.4133 42.0905 41.5453 41.2047C41.5453 41.2047 41.4618 42.3855 42.4269 41.584C42.4269 41.584 42.762 42.7225 43.391 42.048C43.391 42.048 44.0672 42.7448 44.5278 42.1971L44.8043 40.549Z" fill="#D3D2D2"/>
<path d="M44.8043 40.549L45.2649 39.049C45.2649 39.049 43.8949 39.3069 44.314 38.0835C44.7337 36.8605 44.1043 36.3123 43.6011 36.4808C43.6011 36.4808 40.4972 36.6912 39.868 36.3967C39.868 36.3967 39.8253 36.5655 40.0776 36.7343C40.3294 36.9027 40.4553 36.9454 40.4553 36.9454C40.4553 36.9454 36.9731 37.0298 36.0925 36.3123C36.0925 36.3123 35.2117 36.1015 35.7148 36.65C35.7148 36.65 36.2601 37.24 36.6376 37.4509L36.0511 37.282C36.0511 37.282 35.6731 37.3243 35.9253 37.873C35.9253 37.873 36.3445 38.3367 37.0995 38.5892C37.0995 38.5892 36.8895 38.7165 36.6793 38.5892C36.6793 38.5892 36.2601 38.7165 36.7219 39.0959C36.7219 39.0959 37.8128 39.5597 38.777 39.5597C38.777 39.5597 37.603 39.8974 38.777 40.3608C38.777 40.3608 39.3644 40.53 39.9097 40.3608C39.9097 40.3608 39.2803 41.2893 40.6226 40.9098C40.6226 40.9098 40.4133 42.0905 41.5453 41.2047C41.5453 41.2047 41.4618 42.3855 42.4269 41.584C42.4269 41.584 42.762 42.7225 43.391 42.048C43.391 42.048 44.0672 42.7448 44.5278 42.1971L44.8043 40.549Z" stroke="#231F20" stroke-width="0.388" stroke-miterlimit="2" stroke-linecap="square"/>
<path d="M40.4551 36.9454C40.4551 36.9454 43.1398 37.0294 43.559 36.8606C43.559 36.8606 44.1463 36.5656 44.0207 37.6621C44.0207 37.6621 43.2236 39.6441 45.2371 39.1799" stroke="#231F20" stroke-width="0.193333" stroke-miterlimit="2" stroke-linecap="square"/>
<path d="M40.3297 36.9027C40.3297 36.9027 40.1198 37.6197 41.2103 37.3247C41.2103 37.3247 40.5812 38.3793 42.3009 37.9147C42.3009 37.9147 41.9241 38.5061 43.1399 38.2101C43.1399 38.2101 42.8884 38.6741 43.853 38.4633C43.853 38.4633 43.4332 39.1377 43.4332 39.9814" stroke="#231F20" stroke-width="0.193333" stroke-miterlimit="2" stroke-linecap="square"/>
<path d="M44.8597 40.4456C44.1465 40.53 44.189 40.2345 44.189 40.2345C43.5591 40.4456 43.4332 39.9812 43.4332 39.9812C42.846 40.1926 42.804 39.7281 42.804 39.7281C41.9651 39.9812 42.0914 39.4754 42.0914 39.4754C41.2938 39.9395 41.4204 38.8427 41.4204 38.8427L41.462 37.9991L41.4204 37.873C41.4204 37.873 42.2298 37.5101 42.7328 36.962" stroke="#231F20" stroke-width="0.193333" stroke-miterlimit="2" stroke-linecap="square"/>
<path d="M41.5493 37.3247C38.6545 38.969 36.8931 37.367 36.8931 37.367" stroke="#231F20" stroke-width="0.193333" stroke-miterlimit="2" stroke-linecap="square"/>
<path d="M40.65 37.2796C40.65 37.2796 38.739 38.3793 35.9282 36.3967" stroke="#231F20" stroke-width="0.193333" stroke-miterlimit="2" stroke-linecap="square"/>
<path d="M36.1802 37.662C36.1802 37.662 39.3261 39.3065 41.4235 37.662" stroke="#231F20" stroke-width="0.193333" stroke-miterlimit="2" stroke-linecap="square"/>
<path d="M37.4385 38.5891C37.4385 38.5891 39.9971 39.5597 41.5492 37.9146" stroke="#231F20" stroke-width="0.193333" stroke-miterlimit="2" stroke-linecap="square"/>
<path d="M36.9355 38.9276C36.9355 38.9276 40.7526 39.813 41.717 38.3795" stroke="#231F20" stroke-width="0.193333" stroke-miterlimit="2" stroke-linecap="square"/>
<path d="M39.0322 39.5174C39.0322 39.5174 40.2914 39.8974 41.7594 38.8427" stroke="#231F20" stroke-width="0.193333" stroke-miterlimit="2" stroke-linecap="square"/>
<path d="M38.6548 39.9814C38.6548 39.9814 39.7877 40.5718 41.7169 39.1799" stroke="#231F20" stroke-width="0.193333" stroke-miterlimit="2" stroke-linecap="square"/>
<path d="M39.9097 40.3608C39.9097 40.3608 41.0422 40.2769 41.545 39.4332" stroke="#231F20" stroke-width="0.193333" stroke-miterlimit="2" stroke-linecap="square"/>
<path d="M40.623 40.9097C40.623 40.9097 41.2532 40.9519 42.1752 39.6854" stroke="#231F20" stroke-width="0.193333" stroke-miterlimit="2" stroke-linecap="square"/>
<path d="M41 41.1199C41 41.1199 41.8815 40.7411 42.427 39.7708" stroke="#231F20" stroke-width="0.193333" stroke-miterlimit="2" stroke-linecap="square"/>
<path d="M41.5454 41.2048C41.5454 41.2048 42.5525 40.6566 42.5525 39.7283L42.427 41.5842" stroke="#231F20" stroke-width="0.193333" stroke-miterlimit="2" stroke-linecap="square"/>
<path d="M42.0073 41.5841C42.0073 41.5841 42.4271 40.6565 42.4687 40.2769" stroke="#231F20" stroke-width="0.193333" stroke-miterlimit="2" stroke-linecap="square"/>
<path d="M42.9302 40.0231V41.795" stroke="#231F20" stroke-width="0.193333" stroke-miterlimit="2" stroke-linecap="square"/>
<path d="M43.2241 40.0231C43.2241 40.0231 43.2655 41.6258 43.3912 42.0479" stroke="#231F20" stroke-width="0.193333" stroke-miterlimit="2" stroke-linecap="square"/>
<path d="M43.9367 40.2769C43.9367 40.2769 44.0208 42.0061 43.895 42.3011" stroke="#231F20" stroke-width="0.193333" stroke-miterlimit="2" stroke-linecap="square"/>
<path d="M43.5176 40.1501C43.5176 40.1501 43.5591 41.7108 43.6428 41.9216" stroke="#231F20" stroke-width="0.193333" stroke-miterlimit="2" stroke-linecap="square"/>
<path d="M41.8257 38.0488C41.8257 38.0488 41.9036 39.0881 41.8257 39.229" stroke="#231F20" stroke-width="0.193333" stroke-miterlimit="2" stroke-linecap="square"/>
<path d="M42.2168 38.0835L42.0913 39.4754C41.0425 40.7409 40.1196 40.6984 40.1196 40.6984" stroke="#231F20" stroke-width="0.193333" stroke-miterlimit="2" stroke-linecap="square"/>
<path d="M42.8037 39.6019C42.8455 38.9689 43.1396 38.2103 43.1396 38.2103C43.1396 38.2103 43.6846 37.7882 43.9786 37.0715" stroke="#231F20" stroke-width="0.193333" stroke-miterlimit="2" stroke-linecap="square"/>
<path d="M44.4825 39.1799C44.4825 39.1799 44.2302 39.5174 44.189 40.2345" stroke="#231F20" stroke-width="0.193333" stroke-miterlimit="2" stroke-linecap="square"/>
<path d="M42.4269 39.349C42.3005 38.9689 42.6363 38.2524 42.6363 38.2524C42.6363 38.2524 43.4329 37.662 43.8105 36.8605" stroke="#231F20" stroke-width="0.193333" stroke-miterlimit="2" stroke-linecap="square"/>
<path d="M43.1816 39.4754C43.1816 39.1799 43.391 38.5472 43.391 38.5472C43.391 38.5472 43.7686 37.7042 44.0208 37.662" stroke="#231F20" stroke-width="0.193333" stroke-miterlimit="2" stroke-linecap="square"/>
<path d="M44.021 39.0115C44.021 39.0115 43.8534 39.6019 43.811 39.9392" stroke="#231F20" stroke-width="0.193333" stroke-miterlimit="2" stroke-linecap="square"/>
<path d="M44.7756 39.0591C44.7756 39.0591 44.5659 39.6494 44.5659 39.9862" stroke="#231F20" stroke-width="0.388" stroke-miterlimit="2" stroke-linecap="square"/>
<path d="M44.4406 40.4456C44.4406 40.4456 44.2305 41.2892 44.189 41.753" stroke="#231F20" stroke-width="0.193333" stroke-miterlimit="2" stroke-linecap="square"/>
<path d="M42.6396 37.9147C42.6396 37.9147 43.1852 37.6301 43.563 36.997" stroke="#231F20" stroke-width="0.193333" stroke-miterlimit="2" stroke-linecap="square"/>
<path d="M60.3984 39.1799C60.3984 39.1799 60.6503 39.5174 60.6924 40.2345" stroke="#231F20" stroke-width="0.388" stroke-miterlimit="2" stroke-linecap="square"/>
<path d="M60.1045 39.2224C60.1045 39.2224 60.3139 39.8128 60.3139 40.1502" stroke="#231F20" stroke-width="0.388" stroke-miterlimit="2" stroke-linecap="square"/>
<path d="M60.4404 40.4456C60.4404 40.4456 60.6504 41.2892 60.6926 41.753" stroke="#231F20" stroke-width="0.388" stroke-miterlimit="2" stroke-linecap="square"/>
<path d="M60.3544 40.549L59.894 39.049C59.894 39.049 61.2641 39.3069 60.8451 38.0835C60.4251 36.8605 61.0547 36.3123 61.5578 36.4808C61.5578 36.4808 64.6612 36.6912 65.2905 36.3967C65.2905 36.3967 65.3333 36.5655 65.0814 36.7343C64.829 36.9027 64.7035 36.9454 64.7035 36.9454C64.7035 36.9454 68.1852 37.0298 69.0662 36.3123C69.0662 36.3123 69.9467 36.1015 69.4436 36.65C69.4436 36.65 68.8981 37.24 68.5205 37.4509L69.1072 37.282C69.1072 37.282 69.4849 37.3243 69.2332 37.873C69.2332 37.873 68.8138 38.3367 68.0586 38.5892C68.0586 38.5892 68.2686 38.7165 68.4789 38.5892C68.4789 38.5892 68.8981 38.7165 68.4365 39.0959C68.4365 39.0959 67.3462 39.5597 66.3815 39.5597C66.3815 39.5597 67.5555 39.8974 66.3815 40.3608C66.3815 40.3608 65.7943 40.53 65.249 40.3608C65.249 40.3608 65.8781 41.2893 64.5358 40.9098C64.5358 40.9098 64.7453 42.0905 63.6131 41.2047C63.6131 41.2047 63.6969 42.3855 62.7317 41.584C62.7317 41.584 62.3969 42.7225 61.7676 42.048C61.7676 42.048 61.0916 42.7448 60.631 42.1971L60.3544 40.549Z" fill="#D3D2D2"/>
<path d="M60.3544 40.549L59.894 39.049C59.894 39.049 61.2641 39.3069 60.8451 38.0835C60.4251 36.8605 61.0547 36.3123 61.5578 36.4808C61.5578 36.4808 64.6612 36.6912 65.2905 36.3967C65.2905 36.3967 65.3333 36.5655 65.0814 36.7343C64.829 36.9027 64.7035 36.9454 64.7035 36.9454C64.7035 36.9454 68.1852 37.0298 69.0662 36.3123C69.0662 36.3123 69.9467 36.1015 69.4436 36.65C69.4436 36.65 68.8981 37.24 68.5205 37.4509L69.1072 37.282C69.1072 37.282 69.4849 37.3243 69.2332 37.873C69.2332 37.873 68.8138 38.3367 68.0586 38.5892C68.0586 38.5892 68.2686 38.7165 68.4789 38.5892C68.4789 38.5892 68.8981 38.7165 68.4365 39.0959C68.4365 39.0959 67.3462 39.5597 66.3815 39.5597C66.3815 39.5597 67.5555 39.8974 66.3815 40.3608C66.3815 40.3608 65.7943 40.53 65.249 40.3608C65.249 40.3608 65.8781 41.2893 64.5358 40.9098C64.5358 40.9098 64.7453 42.0905 63.6131 41.2047C63.6131 41.2047 63.6969 42.3855 62.7317 41.584C62.7317 41.584 62.3969 42.7225 61.7676 42.048C61.7676 42.048 61.0916 42.7448 60.631 42.1971L60.3544 40.549Z" stroke="#231F20" stroke-width="0.388" stroke-miterlimit="2" stroke-linecap="square"/>
<path d="M64.7035 36.9454C64.7035 36.9454 62.0193 37.0294 61.5996 36.8606C61.5996 36.8606 61.0127 36.5656 61.138 37.6621C61.138 37.6621 61.9353 39.6441 59.9219 39.1799" stroke="#231F20" stroke-width="0.193333" stroke-miterlimit="2" stroke-linecap="square"/>
<path d="M64.8293 36.9027C64.8293 36.9027 65.0392 37.6197 63.9489 37.3247C63.9489 37.3247 64.5779 38.3793 62.8584 37.9147C62.8584 37.9147 63.2353 38.5061 62.0195 38.2101C62.0195 38.2101 62.2709 38.6741 61.3062 38.4633C61.3062 38.4633 61.7259 39.1377 61.7259 39.9814" stroke="#231F20" stroke-width="0.193333" stroke-miterlimit="2" stroke-linecap="square"/>
<path d="M60.2993 40.4456C61.0128 40.53 60.9704 40.2345 60.9704 40.2345C61.5996 40.4456 61.7257 39.9812 61.7257 39.9812C62.3129 40.1926 62.355 39.7281 62.355 39.7281C63.1941 39.9812 63.0681 39.4754 63.0681 39.4754C63.865 39.9395 63.7382 38.8427 63.7382 38.8427L63.6969 37.9991L63.7382 37.873C63.7382 37.873 62.9297 37.5101 62.4265 36.962" stroke="#231F20" stroke-width="0.193333" stroke-miterlimit="2" stroke-linecap="square"/>
<path d="M63.6094 37.3247C66.504 38.969 68.2652 37.367 68.2652 37.367" stroke="#231F20" stroke-width="0.193333" stroke-miterlimit="2" stroke-linecap="square"/>
<path d="M64.5093 37.2796C64.5093 37.2796 66.4202 38.3793 69.2302 36.3967" stroke="#231F20" stroke-width="0.193333" stroke-miterlimit="2" stroke-linecap="square"/>
<path d="M68.9784 37.662C68.9784 37.662 65.8328 39.3065 63.7354 37.662" stroke="#231F20" stroke-width="0.193333" stroke-miterlimit="2" stroke-linecap="square"/>
<path d="M67.72 38.5891C67.72 38.5891 65.1615 39.5597 63.6094 37.9146" stroke="#231F20" stroke-width="0.193333" stroke-miterlimit="2" stroke-linecap="square"/>
<path d="M68.2228 38.9276C68.2228 38.9276 64.4059 39.813 63.4419 38.3795" stroke="#231F20" stroke-width="0.193333" stroke-miterlimit="2" stroke-linecap="square"/>
<path d="M66.1267 39.5174C66.1267 39.5174 64.8672 39.8974 63.3994 38.8427" stroke="#231F20" stroke-width="0.193333" stroke-miterlimit="2" stroke-linecap="square"/>
<path d="M66.504 39.9814C66.504 39.9814 65.3709 40.5718 63.4419 39.1799" stroke="#231F20" stroke-width="0.193333" stroke-miterlimit="2" stroke-linecap="square"/>
<path d="M65.249 40.3608C65.249 40.3608 64.1168 40.2769 63.6133 39.4332" stroke="#231F20" stroke-width="0.193333" stroke-miterlimit="2" stroke-linecap="square"/>
<path d="M64.5361 40.9097C64.5361 40.9097 63.906 40.9519 62.9844 39.6854" stroke="#231F20" stroke-width="0.193333" stroke-miterlimit="2" stroke-linecap="square"/>
<path d="M64.1587 41.1199C64.1587 41.1199 63.2779 40.7411 62.7319 39.7708" stroke="#231F20" stroke-width="0.193333" stroke-miterlimit="2" stroke-linecap="square"/>
<path d="M63.6131 41.2048C63.6131 41.2048 62.606 40.6566 62.606 39.7283L62.7316 41.5842" stroke="#231F20" stroke-width="0.193333" stroke-miterlimit="2" stroke-linecap="square"/>
<path d="M63.1517 41.5841C63.1517 41.5841 62.732 40.6565 62.6904 40.2769" stroke="#231F20" stroke-width="0.193333" stroke-miterlimit="2" stroke-linecap="square"/>
<path d="M62.2285 40.0231V41.795" stroke="#231F20" stroke-width="0.193333" stroke-miterlimit="2" stroke-linecap="square"/>
<path d="M61.9352 40.0231C61.9352 40.0231 61.8939 41.6258 61.7676 42.0479" stroke="#231F20" stroke-width="0.193333" stroke-miterlimit="2" stroke-linecap="square"/>
<path d="M61.2218 40.2769C61.2218 40.2769 61.1377 42.0061 61.2638 42.3011" stroke="#231F20" stroke-width="0.193333" stroke-miterlimit="2" stroke-linecap="square"/>
<path d="M61.6415 40.1501C61.6415 40.1501 61.5997 41.7108 61.5161 41.9216" stroke="#231F20" stroke-width="0.193333" stroke-miterlimit="2" stroke-linecap="square"/>
<path d="M63.3334 38.0488C63.3334 38.0488 63.2557 39.0881 63.3334 39.229" stroke="#231F20" stroke-width="0.193333" stroke-miterlimit="2" stroke-linecap="square"/>
<path d="M62.9419 38.0835L63.0678 39.4754C64.1166 40.7409 65.0389 40.6984 65.0389 40.6984" stroke="#231F20" stroke-width="0.193333" stroke-miterlimit="2" stroke-linecap="square"/>
<path d="M62.3549 39.6019C62.3128 38.9689 62.0193 38.2103 62.0193 38.2103C62.0193 38.2103 61.4737 37.7882 61.1802 37.0715" stroke="#231F20" stroke-width="0.193333" stroke-miterlimit="2" stroke-linecap="square"/>
<path d="M60.6763 39.1799C60.6763 39.1799 60.9286 39.5174 60.9704 40.2345" stroke="#231F20" stroke-width="0.193333" stroke-miterlimit="2" stroke-linecap="square"/>
<path d="M62.7321 39.349C62.8586 38.9689 62.5226 38.2524 62.5226 38.2524C62.5226 38.2524 61.7261 37.662 61.3486 36.8605" stroke="#231F20" stroke-width="0.193333" stroke-miterlimit="2" stroke-linecap="square"/>
<path d="M61.9767 39.4754C61.9767 39.1799 61.7674 38.5472 61.7674 38.5472C61.7674 38.5472 61.39 37.7042 61.1377 37.662" stroke="#231F20" stroke-width="0.193333" stroke-miterlimit="2" stroke-linecap="square"/>
<path d="M61.1377 39.0115C61.1377 39.0115 61.3058 39.6019 61.3482 39.9392" stroke="#231F20" stroke-width="0.193333" stroke-miterlimit="2" stroke-linecap="square"/>
<path d="M60.3833 39.0591C60.3833 39.0591 60.5931 39.6494 60.5931 39.9862" stroke="#231F20" stroke-width="0.388" stroke-miterlimit="2" stroke-linecap="square"/>
<path d="M60.7188 40.4456C60.7188 40.4456 60.9284 41.2892 60.9704 41.753" stroke="#231F20" stroke-width="0.193333" stroke-miterlimit="2" stroke-linecap="square"/>
<path d="M62.5192 37.9147C62.5192 37.9147 61.9737 37.6301 61.5957 36.997" stroke="#231F20" stroke-width="0.193333" stroke-miterlimit="2" stroke-linecap="square"/>
<path d="M60.5584 42.2873C60.5584 46.7156 56.9871 50.3073 52.5815 50.3073C48.1766 50.3073 44.6055 46.7156 44.6055 42.2873C44.6055 37.8583 48.1766 34.2679 52.5815 34.2679C56.9871 34.2679 60.5584 37.8583 60.5584 42.2873Z" stroke="#231F20" stroke-width="1.16267" stroke-miterlimit="2" stroke-linecap="square"/>
<path d="M60.5584 42.2873C60.5584 46.7156 56.9871 50.3073 52.5815 50.3073C48.1766 50.3073 44.6055 46.7156 44.6055 42.2873C44.6055 37.8583 48.1766 34.2679 52.5815 34.2679C56.9871 34.2679 60.5584 37.8583 60.5584 42.2873Z" stroke="#231F20" stroke-width="0.388" stroke-miterlimit="2" stroke-linecap="square"/>
<path d="M53.0409 43.4405C53.0409 43.4405 53.1613 43.1582 53.2017 42.9564C53.2423 42.7547 53.0007 42.3916 53.0007 42.3916V39.2847L52.6795 39.2435V39.2039L52.5187 39.2239L52.3591 39.2039V39.2435L52.0374 39.2847V42.3916C52.0374 42.3916 51.7974 42.7547 51.8373 42.9564C51.8779 43.1582 51.9984 43.4405 51.9984 43.4405C51.9984 43.4405 51.7974 43.6424 51.7974 44.0166H52.3591H52.6795H53.2423C53.2423 43.6424 53.0409 43.4405 53.0409 43.4405Z" fill="#92292E"/>
<path d="M52.3692 35.0573C52.3692 35.0573 52.1285 35.1387 52.047 35.7029C52.0147 35.9426 51.7268 35.1787 50.8443 35.461C51.4863 35.7438 51.4064 36.3485 51.4064 36.3485C51.4064 36.3485 50.2828 35.5011 49.3996 36.712C50.3622 36.6712 51.1251 36.9945 51.1251 36.9945C51.1251 36.9945 49.4798 36.7519 49.2783 38.205C50.2016 37.8012 51.1251 37.9637 51.1251 37.9637C51.1251 37.9637 49.7607 37.9637 50.1615 39.4149C50.8033 38.5273 51.6067 38.6892 51.6067 38.6892C51.6067 38.6892 50.6033 39.053 51.0047 40.1423C51.6067 39.4962 52.2896 39.4962 52.2896 39.4962H52.611C52.611 39.4962 53.2926 39.4962 53.8943 40.1423C54.2963 39.053 53.2926 38.6892 53.2926 38.6892C53.2926 38.6892 54.0959 38.5273 54.7373 39.4149C55.1387 37.9637 53.7735 37.9637 53.7735 37.9637C53.7735 37.9637 54.6973 37.8012 55.6198 38.205C55.4194 36.7519 53.7735 36.9945 53.7735 36.9945C53.7735 36.9945 54.5372 36.6712 55.4997 36.712C54.6178 35.5011 53.4924 36.3485 53.4924 36.3485C53.4924 36.3485 53.4131 35.7438 54.0548 35.461C53.1719 35.1787 52.8846 35.9426 52.8513 35.7029C52.7709 35.1387 52.5297 35.0573 52.5297 35.0573H52.3692Z" fill="#00A650"/>
<path d="M59.7438 42.6384C54.9285 42.5988 50.9546 47.3193 50.9546 47.3193L50.2715 46.5931C50.2715 46.5931 54.8072 41.1857 59.7438 42.6384Z" fill="#D3D2D2"/>
<path d="M59.7438 42.6384C54.9285 42.5988 50.9546 47.3193 50.9546 47.3193L50.2715 46.5931C50.2715 46.5931 54.8072 41.1857 59.7438 42.6384Z" stroke="#D3D2D2" stroke-width="0.388" stroke-miterlimit="2" stroke-linecap="square"/>
<path d="M50.4172 46.0519C50.4199 46.1079 50.41 46.1619 50.3965 46.2142C50.489 46.59 50.801 46.4531 50.9273 46.5888C51.1771 46.8539 51.066 46.9285 51.2764 47.113C51.6343 47.176 51.8488 47.5584 51.8553 47.791C51.8637 48.0897 51.6307 48.3406 51.3335 48.3492C51.0365 48.3581 50.5975 48.0492 50.5885 47.7503C50.5853 47.646 50.5077 47.6566 50.5557 47.5727C50.5647 47.545 50.5357 47.5925 50.5557 47.5727C50.4152 48.0031 49.8515 48.3391 49.5969 48.44C49.2245 48.5879 49.1416 48.5618 48.9596 48.5069C48.6746 48.4208 48.421 48.2338 48.4119 47.9347C48.403 47.636 48.6373 47.3861 48.9336 47.3772C49.0676 47.3737 49.2965 47.4842 49.3046 47.4822C49.9906 47.2649 49.7818 46.6 49.7818 46.6C49.5377 46.5543 49.3494 46.3442 49.3413 46.0845C49.3326 45.7856 49.566 45.5357 49.8643 45.5269C50.1607 45.5181 50.4086 45.7526 50.4172 46.0519Z" fill="#CB951A"/>
<path d="M45.2959 42.6384C50.1118 42.5988 54.0856 47.3193 54.0856 47.3193L54.7673 46.5931C54.7673 46.5931 50.2317 41.1857 45.2959 42.6384Z" fill="#D3D2D2"/>
<path d="M45.2959 42.6384C50.1118 42.5988 54.0856 47.3193 54.0856 47.3193L54.7673 46.5931C54.7673 46.5931 50.2317 41.1857 45.2959 42.6384Z" stroke="#D3D2D2" stroke-width="0.388" stroke-miterlimit="2" stroke-linecap="square"/>
<path d="M54.621 46.0519C54.6195 46.1079 54.6293 46.1619 54.6441 46.2142C54.5511 46.59 54.238 46.4531 54.1117 46.5888C53.8633 46.8539 53.9743 46.9285 53.762 47.113C53.405 47.176 53.1913 47.5584 53.1839 47.791C53.1746 48.0897 53.4081 48.3406 53.7059 48.3492C54.0034 48.3581 54.4427 48.0492 54.4507 47.7503C54.4544 47.646 54.5314 47.6566 54.4825 47.5727C54.5046 47.5925 54.4738 47.545 54.4825 47.5727C54.624 48.0031 55.1887 48.3391 55.4425 48.44C55.8145 48.5879 55.8974 48.5618 56.0805 48.5069C56.3645 48.4208 56.6193 48.2338 56.6281 47.9347C56.6371 47.636 56.4029 47.3861 56.1058 47.3772C55.972 47.3737 55.7435 47.4842 55.7344 47.4822C55.0485 47.2649 55.2578 46.6 55.2578 46.6C55.5016 46.5543 55.6899 46.3442 55.6976 46.0845C55.7072 45.7856 55.4735 45.5357 55.1754 45.5269C54.8793 45.5181 54.631 45.7526 54.621 46.0519Z" fill="#CB951A"/>
<path d="M35.8446 49.812L36.7248 51.2692C36.7248 51.2692 36.135 51.747 35.6376 51.0086C35.1302 50.254 35.8446 49.812 35.8446 49.812Z" fill="#F0CF09"/>
<path d="M35.8446 49.812L36.7248 51.2692C36.7248 51.2692 36.135 51.747 35.6376 51.0086C35.1302 50.254 35.8446 49.812 35.8446 49.812Z" stroke="#231F20" stroke-width="0.388" stroke-miterlimit="2" stroke-linecap="square"/>
<path d="M48.6744 5.54201L47.9859 5.52606C47.9859 5.52606 47.9689 5.74803 47.347 5.89898L47.2564 5.92381C45.5253 6.42955 44.3093 6.53175 44.3093 6.53175C42.5949 6.63613 42.1269 7.47203 42.1269 7.47203C40.6715 7.10653 40.5157 7.62878 40.5157 7.62878C37.4497 9.87555 38.5929 13.5854 38.5929 13.5854C41.2951 14.7085 42.3607 17.0335 42.3607 17.0335C42.4406 17.402 42.8688 17.578 42.8688 17.578C45.089 18.5747 48.6734 18.5747 48.6734 18.5747" fill="#F0CF09"/>
<path d="M48.6744 5.54201L47.9859 5.52606C47.9859 5.52606 47.9689 5.74803 47.347 5.89898L47.2564 5.92381C45.5253 6.42955 44.3093 6.53175 44.3093 6.53175C42.5949 6.63613 42.1269 7.47203 42.1269 7.47203C40.6715 7.10653 40.5157 7.62878 40.5157 7.62878C37.4497 9.87555 38.5929 13.5854 38.5929 13.5854C41.2951 14.7085 42.3607 17.0335 42.3607 17.0335C42.4406 17.402 42.8688 17.578 42.8688 17.578C45.089 18.5747 48.6734 18.5747 48.6734 18.5747" stroke="#231F20" stroke-width="0.774667"/>
<path d="M48.6743 15.6572C44.6209 15.6389 42.6765 16.8773 42.6765 16.8773C42.6765 16.8773 42.4329 17.0368 42.4302 17.2084" stroke="#231F20" stroke-width="0.774667"/>
<path d="M40.333 14.582C40.333 14.582 43.2696 12.9221 48.6741 12.7311" stroke="#231F20" stroke-width="0.774667"/>
<path d="M42.1267 16.5765L42.952 16.2334C42.952 16.2334 43.263 16.1746 43.4094 15.8316L43.6341 15.1526L44.2902 15.5968C44.2902 15.5968 44.4329 15.7335 44.7771 15.6228C45.2332 15.4758 47.0636 15.162 47.8435 15.2146C47.8435 15.2146 48.1286 15.2487 48.2589 15.0478L48.6743 14.5073L48.3116 14.1076L48.6743 13.6712C48.6743 13.6712 48.5543 13.3434 47.6482 13.4018C47.6482 13.4018 45.3882 13.3732 44.154 13.8987C44.154 13.8987 43.5331 14.0585 43.4293 14.3558C43.4293 14.3558 43.2472 14.1761 42.6984 14.3687C42.6984 14.3687 41.321 14.7476 40.9575 15.1137C40.9575 15.1137 41.5288 14.6561 41.8796 15.1457C42.1927 15.583 41.6848 15.9624 41.6848 15.9624L41.9774 15.7928L42.6984 15.4661C42.6984 15.4661 42.9904 15.3027 43.2929 15.5478L43.8771 15.9396L44.1597 15.1949C44.1597 15.1949 44.2187 15.0093 44.6275 14.9307C44.6275 14.9307 47.8137 14.3131 48.1841 14.7051C48.4689 15.0065 48.6743 15.2537 48.6743 15.2537" stroke="#231F20" stroke-width="0.774667"/>
<path d="M43.6342 15.1526L43.8578 14.6659L43.426 14.3687L43.1924 14.8457L43.6342 15.1526Z" stroke="#231F20" stroke-width="0.774667"/>
<path d="M43.186 14.8457L42.9258 14.9239" stroke="#231F20" stroke-width="0.774667"/>
<path d="M40.7204 14.3527L39.9702 13.3531C39.9702 13.3531 39.4568 10.4991 41.4315 8.98334C41.4315 8.98334 40.8469 12.1088 41.7724 13.9216C41.7724 13.9216 40.8961 14.2446 40.7204 14.3527Z" fill="#2AAB51"/>
<path d="M40.7204 14.3527L39.9702 13.3531C39.9702 13.3531 39.4568 10.4991 41.4315 8.98334C41.4315 8.98334 40.8469 12.1088 41.7724 13.9216C41.7724 13.9216 40.8961 14.2446 40.7204 14.3527Z" stroke="#231F20" stroke-width="0.774667"/>
<path d="M47.9406 11.56C47.9406 11.56 44.3058 11.6872 43.0681 12.2651C43.0681 12.2651 42.8729 9.64976 42.9901 9.21849C42.9901 9.21849 43.0974 8.19014 44.0718 8.07218C44.0718 8.07218 47.1091 7.68349 47.7846 7.31799C47.7846 7.31799 47.3362 9.65936 47.9406 11.56Z" fill="#2AAB51"/>
<path d="M47.9406 11.56C47.9406 11.56 44.3058 11.6872 43.0681 12.2651C43.0681 12.2651 42.8729 9.64976 42.9901 9.21849C42.9901 9.21849 43.0974 8.19014 44.0718 8.07218C44.0718 8.07218 47.1091 7.68349 47.7846 7.31799C47.7846 7.31799 47.3362 9.65936 47.9406 11.56Z" stroke="#231F20" stroke-width="0.774667"/>
<path d="M43.8647 14.6658L44.1539 14.5972" stroke="#231F20" stroke-width="0.774667"/>
<path d="M48.3117 14.1077H47.9897" stroke="#231F20" stroke-width="0.774667"/>
<path d="M45.9616 14.1661C45.9616 14.3984 45.7746 14.5869 45.5436 14.5869C45.3125 14.5869 45.126 14.3984 45.126 14.1661C45.126 13.934 45.3125 13.7465 45.5436 13.7465C45.7746 13.7465 45.9616 13.934 45.9616 14.1661Z" stroke="#231F20" stroke-width="0.388"/>
<path d="M45.7295 14.1661C45.7295 14.2697 45.6463 14.353 45.5434 14.353C45.4407 14.353 45.3569 14.2697 45.3569 14.1661C45.3569 14.0635 45.4407 13.9799 45.5434 13.9799C45.6463 13.9799 45.7295 14.0635 45.7295 14.1661Z" stroke="#231F20" stroke-width="0.388"/>
<path d="M47.7178 12.217C47.7178 12.4478 47.5308 12.635 47.3011 12.635C47.0718 12.635 46.8853 12.4478 46.8853 12.217C46.8853 11.9858 47.0718 11.7988 47.3011 11.7988C47.5308 11.7988 47.7178 11.9858 47.7178 12.217Z" fill="#231F20"/>
<path d="M46.2441 12.3678C46.2441 12.5988 46.0576 12.7858 45.8277 12.7858C45.598 12.7858 45.4111 12.5988 45.4111 12.3678C45.4111 12.1367 45.598 11.9497 45.8277 11.9497C46.0576 11.9497 46.2441 12.1367 46.2441 12.3678Z" fill="#231F20"/>
<path d="M44.8824 12.603C44.8824 12.834 44.6959 13.0219 44.467 13.0219C44.2376 13.0219 44.0508 12.834 44.0508 12.603C44.0508 12.3727 44.2376 12.1851 44.467 12.1851C44.6959 12.1851 44.8824 12.3727 44.8824 12.603Z" fill="#231F20"/>
<path d="M43.5942 12.9067C43.5942 13.1379 43.4079 13.3255 43.1782 13.3255C42.9484 13.3255 42.7622 13.1379 42.7622 12.9067C42.7622 12.676 42.9484 12.4886 43.1782 12.4886C43.4079 12.4886 43.5942 12.676 43.5942 12.9067Z" fill="#231F20"/>
<path d="M42.0118 13.4639C42.0118 13.695 41.8254 13.882 41.5957 13.882C41.3657 13.882 41.1797 13.695 41.1797 13.4639C41.1797 13.2327 41.3657 13.0453 41.5957 13.0453C41.8254 13.0453 42.0118 13.2327 42.0118 13.4639Z" fill="#231F20"/>
<path d="M42.5298 12.3004C42.5298 12.5314 42.3435 12.7184 42.1136 12.7184C41.8843 12.7184 41.6982 12.5314 41.6982 12.3004C41.6982 12.069 41.8843 11.8818 42.1136 11.8818C42.3435 11.8818 42.5298 12.069 42.5298 12.3004Z" fill="#231F20"/>
<path d="M42.4808 11.1292C42.4808 11.3604 42.2948 11.5476 42.0649 11.5476C41.8352 11.5476 41.6489 11.3604 41.6489 11.1292C41.6489 10.8986 41.8352 10.711 42.0649 10.711C42.2948 10.711 42.4808 10.8986 42.4808 11.1292Z" fill="#231F20"/>
<path d="M42.4612 9.96387C42.4612 10.1949 42.2752 10.3819 42.0453 10.3819C41.816 10.3819 41.6294 10.1949 41.6294 9.96387C41.6294 9.73283 41.816 9.54529 42.0453 9.54529C42.2752 9.54529 42.4612 9.73283 42.4612 9.96387Z" fill="#231F20"/>
<path d="M42.7248 8.67049C42.7248 8.90152 42.5385 9.0887 42.3088 9.0887C42.0791 9.0887 41.8931 8.90152 41.8931 8.67049C41.8931 8.43945 42.0791 8.25226 42.3088 8.25226C42.5385 8.25226 42.7248 8.43945 42.7248 8.67049Z" fill="#231F20"/>
<path d="M43.5332 7.66176C43.5332 7.8928 43.3471 8.07926 43.1174 8.07926C42.8877 8.07926 42.7017 7.8928 42.7017 7.66176C42.7017 7.43072 42.8877 7.24353 43.1174 7.24353C43.3471 7.24353 43.5332 7.43072 43.5332 7.66176Z" fill="#231F20"/>
<path d="M39.5578 12.6967C39.5578 12.9279 39.3716 13.1148 39.1415 13.1148C38.9121 13.1148 38.7261 12.9279 38.7261 12.6967C38.7261 12.4659 38.9121 12.2785 39.1415 12.2785C39.3716 12.2785 39.5578 12.4659 39.5578 12.6967Z" fill="#231F20"/>
<path d="M39.5678 11.5359C39.5678 11.7669 39.3813 11.9541 39.1518 11.9541C38.922 11.9541 38.7358 11.7669 38.7358 11.5359C38.7358 11.3052 38.922 11.1175 39.1518 11.1175C39.3813 11.1175 39.5678 11.3052 39.5678 11.5359Z" fill="#231F20"/>
<path d="M39.8695 10.3209C39.8695 10.5523 39.6836 10.7396 39.4537 10.7396C39.2236 10.7396 39.0376 10.5523 39.0376 10.3209C39.0376 10.0898 39.2236 9.9032 39.4537 9.9032C39.6836 9.9032 39.8695 10.0898 39.8695 10.3209Z" fill="#231F20"/>
<path d="M40.4444 9.2483C40.4444 9.47988 40.2579 9.66653 40.0284 9.66653C39.7987 9.66653 39.6123 9.47988 39.6123 9.2483C39.6123 9.01762 39.7987 8.83044 40.0284 8.83044C40.2579 8.83044 40.4444 9.01762 40.4444 9.2483Z" fill="#231F20"/>
<path d="M41.3702 8.2638C41.3702 8.49485 41.184 8.68221 40.9543 8.68221C40.7247 8.68221 40.5386 8.49485 40.5386 8.2638C40.5386 8.03276 40.7247 7.84576 40.9543 7.84576C41.184 7.84576 41.3702 8.03276 41.3702 8.2638Z" fill="#231F20"/>
<path d="M44.7514 7.3426C44.7514 7.57399 44.5649 7.761 44.3354 7.761C44.1056 7.761 43.9194 7.57399 43.9194 7.3426C43.9194 7.11229 44.1056 6.92419 44.3354 6.92419C44.5649 6.92419 44.7514 7.11229 44.7514 7.3426Z" fill="#231F20"/>
<path d="M46.0083 7.14679C46.0083 7.37747 45.8217 7.56485 45.5923 7.56485C45.3623 7.56485 45.1758 7.37747 45.1758 7.14679C45.1758 6.91576 45.3623 6.72821 45.5923 6.72821C45.8217 6.72821 46.0083 6.91576 46.0083 7.14679Z" fill="#231F20"/>
<path d="M47.1485 6.88209C47.1485 7.11331 46.9619 7.30104 46.7321 7.30104C46.5029 7.30104 46.3169 7.11331 46.3169 6.88209C46.3169 6.65123 46.5029 6.46423 46.7321 6.46423C46.9619 6.46423 47.1485 6.65123 47.1485 6.88209Z" fill="#231F20"/>
<path d="M48.337 6.49091C48.337 6.72177 48.1507 6.90895 47.9211 6.90895C47.6917 6.90895 47.5049 6.72177 47.5049 6.49091C47.5049 6.25987 47.6917 6.07269 47.9211 6.07269C48.1507 6.07269 48.337 6.25987 48.337 6.49091Z" fill="#231F20"/>
<path d="M48.6802 5.54201L49.3693 5.52606C49.3693 5.52606 49.3865 5.74803 50.0079 5.89898L50.0986 5.92381C51.8302 6.42955 53.045 6.53175 53.045 6.53175C54.7604 6.63613 55.2282 7.47203 55.2282 7.47203C56.6831 7.10653 56.8392 7.62878 56.8392 7.62878C59.9057 9.87555 58.7627 13.5854 58.7627 13.5854C56.0601 14.7085 54.994 17.0335 54.994 17.0335C54.9151 17.402 54.4861 17.578 54.4861 17.578C52.2663 18.5747 48.681 18.5747 48.681 18.5747" fill="#F0CF09"/>
<path d="M48.6802 5.54201L49.3693 5.52606C49.3693 5.52606 49.3865 5.74803 50.0079 5.89898L50.0986 5.92381C51.8302 6.42955 53.045 6.53175 53.045 6.53175C54.7604 6.63613 55.2282 7.47203 55.2282 7.47203C56.6831 7.10653 56.8392 7.62878 56.8392 7.62878C59.9057 9.87555 58.7627 13.5854 58.7627 13.5854C56.0601 14.7085 54.994 17.0335 54.994 17.0335C54.9151 17.402 54.4861 17.578 54.4861 17.578C52.2663 18.5747 48.681 18.5747 48.681 18.5747" stroke="#231F20" stroke-width="0.774667"/>
<path d="M48.6802 15.6572C52.7339 15.6389 54.678 16.8773 54.678 16.8773C54.678 16.8773 54.9225 17.0368 54.9248 17.2084" stroke="#231F20" stroke-width="0.774667"/>
<path d="M57.0209 14.582C57.0209 14.582 54.0851 12.9221 48.6802 12.7311" stroke="#231F20" stroke-width="0.774667"/>
<path d="M55.2282 16.5765L54.4029 16.2334C54.4029 16.2334 54.0909 16.1746 53.9462 15.8316L53.7216 15.1526L53.065 15.5968C53.065 15.5968 52.9224 15.7335 52.5776 15.6228C52.1217 15.4758 50.2916 15.162 49.5123 15.2146C49.5123 15.2146 49.227 15.2487 49.0963 15.0478L48.6802 14.5073L49.0439 14.1076L48.6802 13.6712C48.6802 13.6712 48.8003 13.3434 49.7069 13.4018C49.7069 13.4018 51.9675 13.3732 53.2013 13.8987C53.2013 13.8987 53.8224 14.0585 53.9261 14.3558C53.9261 14.3558 54.108 14.1761 54.6564 14.3687C54.6564 14.3687 56.0338 14.7476 56.3972 15.1137C56.3972 15.1137 55.8256 14.6561 55.4744 15.1457C55.1631 15.583 55.671 15.9624 55.671 15.9624L55.3779 15.7928L54.6564 15.4661C54.6564 15.4661 54.3649 15.3027 54.0624 15.5478L53.4783 15.9396L53.195 15.1949C53.195 15.1949 53.1368 15.0093 52.7271 14.9307C52.7271 14.9307 49.5416 14.3131 49.1714 14.7051C48.8865 15.0065 48.6802 15.2537 48.6802 15.2537" stroke="#231F20" stroke-width="0.774667"/>
<path d="M53.7215 15.1526L53.4976 14.6659L53.9295 14.3687L54.1633 14.8457L53.7215 15.1526Z" stroke="#231F20" stroke-width="0.774667"/>
<path d="M54.1694 14.8457L54.4299 14.9239" stroke="#231F20" stroke-width="0.774667"/>
<path d="M56.6348 14.3527L57.3857 13.3531C57.3857 13.3531 57.8988 10.4991 55.9238 8.98334C55.9238 8.98334 56.508 12.1088 55.584 13.9216C55.584 13.9216 56.4594 14.2446 56.6348 14.3527Z" fill="#2AAB51"/>
<path d="M56.6348 14.3527L57.3857 13.3531C57.3857 13.3531 57.8988 10.4991 55.9238 8.98334C55.9238 8.98334 56.508 12.1088 55.584 13.9216C55.584 13.9216 56.4594 14.2446 56.6348 14.3527Z" stroke="#231F20" stroke-width="0.774667"/>
<path d="M49.415 11.56C49.415 11.56 53.0493 11.6872 54.2874 12.2651C54.2874 12.2651 54.4827 9.64976 54.3652 9.21849C54.3652 9.21849 54.2574 8.19014 53.283 8.07218C53.283 8.07218 50.246 7.68349 49.5701 7.31799C49.5701 7.31799 50.0189 9.65936 49.415 11.56Z" fill="#2AAB51"/>
<path d="M49.415 11.56C49.415 11.56 53.0493 11.6872 54.2874 12.2651C54.2874 12.2651 54.4827 9.64976 54.3652 9.21849C54.3652 9.21849 54.2574 8.19014 53.283 8.07218C53.283 8.07218 50.246 7.68349 49.5701 7.31799C49.5701 7.31799 50.0189 9.65936 49.415 11.56Z" stroke="#231F20" stroke-width="0.774667"/>
<path d="M53.4904 14.6658L53.2012 14.5972" stroke="#231F20" stroke-width="0.774667"/>
<path d="M49.0439 14.1077H49.366" stroke="#231F20" stroke-width="0.774667"/>
<path d="M51.3965 14.1661C51.3965 14.397 51.5814 14.5843 51.8119 14.5843C52.0415 14.5843 52.2269 14.397 52.2269 14.1661C52.2269 13.9355 52.0415 13.7487 51.8119 13.7487C51.5814 13.7487 51.3965 13.9355 51.3965 14.1661Z" stroke="#231F20" stroke-width="0.388"/>
<path d="M51.6255 14.1661C51.6255 14.2697 51.7096 14.353 51.8118 14.353C51.9139 14.353 51.9967 14.2697 51.9967 14.1661C51.9967 14.0635 51.9139 13.9799 51.8118 13.9799C51.7096 13.9799 51.6255 14.0635 51.6255 14.1661Z" stroke="#231F20" stroke-width="0.388"/>
<path d="M49.6377 12.217C49.6377 12.4478 49.824 12.635 50.0545 12.635C50.2823 12.635 50.4694 12.4478 50.4694 12.217C50.4694 11.9858 50.2823 11.7988 50.0545 11.7988C49.824 11.7988 49.6377 11.9858 49.6377 12.217Z" fill="#231F20"/>
<path d="M51.1123 12.3678C51.1123 12.5988 51.2979 12.7858 51.5274 12.7858C51.7575 12.7858 51.9439 12.5988 51.9439 12.3678C51.9439 12.1367 51.7575 11.9497 51.5274 11.9497C51.2979 11.9497 51.1123 12.1367 51.1123 12.3678Z" fill="#231F20"/>
<path d="M52.4722 12.603C52.4722 12.834 52.6587 13.0219 52.8883 13.0219C53.1172 13.0219 53.3039 12.834 53.3039 12.603C53.3039 12.3727 53.1172 12.1851 52.8883 12.1851C52.6587 12.1851 52.4722 12.3727 52.4722 12.603Z" fill="#231F20"/>
<path d="M53.7612 12.9067C53.7612 13.1379 53.9478 13.3255 54.1774 13.3255C54.4072 13.3255 54.5932 13.1379 54.5932 12.9067C54.5932 12.676 54.4072 12.4886 54.1774 12.4886C53.9478 12.4886 53.7612 12.676 53.7612 12.9067Z" fill="#231F20"/>
<path d="M55.3433 13.4639C55.3433 13.695 55.5297 13.882 55.7601 13.882C55.9892 13.882 56.1762 13.695 56.1762 13.4639C56.1762 13.2327 55.9892 13.0453 55.7601 13.0453C55.5297 13.0453 55.3433 13.2327 55.3433 13.4639Z" fill="#231F20"/>
<path d="M54.8252 12.3004C54.8252 12.5314 55.0113 12.7184 55.2423 12.7184C55.4712 12.7184 55.6569 12.5314 55.6569 12.3004C55.6569 12.069 55.4712 11.8818 55.2423 11.8818C55.0113 11.8818 54.8252 12.069 54.8252 12.3004Z" fill="#231F20"/>
<path d="M54.8745 11.1292C54.8745 11.3604 55.0613 11.5476 55.2897 11.5476C55.5203 11.5476 55.7066 11.3604 55.7066 11.1292C55.7066 10.8986 55.5203 10.711 55.2897 10.711C55.0613 10.711 54.8745 10.8986 54.8745 11.1292Z" fill="#231F20"/>
<path d="M54.8931 9.96387C54.8931 10.1949 55.0802 10.3819 55.31 10.3819C55.5396 10.3819 55.7265 10.1949 55.7265 9.96387C55.7265 9.73283 55.5396 9.54529 55.31 9.54529C55.0802 9.54529 54.8931 9.73283 54.8931 9.96387Z" fill="#231F20"/>
<path d="M54.6309 8.67049C54.6309 8.90152 54.8169 9.0887 55.0473 9.0887C55.2768 9.0887 55.4633 8.90152 55.4633 8.67049C55.4633 8.43945 55.2768 8.25226 55.0473 8.25226C54.8169 8.25226 54.6309 8.43945 54.6309 8.67049Z" fill="#231F20"/>
<path d="M53.8223 7.66176C53.8223 7.8928 54.0078 8.07926 54.2377 8.07926C54.4674 8.07926 54.6539 7.8928 54.6539 7.66176C54.6539 7.43072 54.4674 7.24353 54.2377 7.24353C54.0078 7.24353 53.8223 7.43072 53.8223 7.66176Z" fill="#231F20"/>
<path d="M57.4858 10.3209C57.4858 10.5523 57.6719 10.7396 57.9016 10.7396C58.1315 10.7396 58.317 10.5523 58.317 10.3209C58.317 10.0898 58.1315 9.9032 57.9016 9.9032C57.6719 9.9032 57.4858 10.0898 57.4858 10.3209Z" fill="#231F20"/>
<path d="M56.9111 9.2483C56.9111 9.47988 57.0974 9.66653 57.3269 9.66653C57.557 9.66653 57.7428 9.47988 57.7428 9.2483C57.7428 9.01762 57.557 8.83044 57.3269 8.83044C57.0974 8.83044 56.9111 9.01762 56.9111 9.2483Z" fill="#231F20"/>
<path d="M55.9849 8.2638C55.9849 8.49485 56.1713 8.68221 56.4014 8.68221C56.6315 8.68221 56.817 8.49485 56.817 8.2638C56.817 8.03276 56.6315 7.84576 56.4014 7.84576C56.1713 7.84576 55.9849 8.03276 55.9849 8.2638Z" fill="#231F20"/>
<path d="M52.6035 7.3426C52.6035 7.57399 52.7902 7.761 53.0191 7.761C53.2498 7.761 53.4358 7.57399 53.4358 7.3426C53.4358 7.11229 53.2498 6.92419 53.0191 6.92419C52.7902 6.92419 52.6035 7.11229 52.6035 7.3426Z" fill="#231F20"/>
<path d="M51.3472 7.14679C51.3472 7.37747 51.5332 7.56485 51.7629 7.56485C51.9921 7.56485 52.1786 7.37747 52.1786 7.14679C52.1786 6.91576 51.9921 6.72821 51.7629 6.72821C51.5332 6.72821 51.3472 6.91576 51.3472 7.14679Z" fill="#231F20"/>
<path d="M50.2065 6.88209C50.2065 7.11331 50.3928 7.30104 50.6223 7.30104C50.8521 7.30104 51.0388 7.11331 51.0388 6.88209C51.0388 6.65123 50.8521 6.46423 50.6223 6.46423C50.3928 6.46423 50.2065 6.65123 50.2065 6.88209Z" fill="#231F20"/>
<path d="M49.0181 6.49091C49.0181 6.72177 49.2046 6.90895 49.4342 6.90895C49.664 6.90895 49.8503 6.72177 49.8503 6.49091C49.8503 6.25987 49.664 6.07269 49.4342 6.07269C49.2046 6.07269 49.0181 6.25987 49.0181 6.49091Z" fill="#231F20"/>
<path d="M48.2572 4.49963L48.2533 3.71302L47.8525 3.4249L48.6535 2.50146L49.458 3.40387L49.1114 3.71302V4.49818L48.2572 4.49963Z" fill="#F0CF09"/>
<path d="M48.2572 4.49963L48.2533 3.71302L47.8525 3.4249L48.6535 2.50146L49.458 3.40387L49.1114 3.71302V4.49818L48.2572 4.49963Z" stroke="#231F20" stroke-width="0.774667"/>
<path d="M49.5817 5.04284C49.5817 5.5426 49.1789 5.94706 48.6825 5.94706C48.1853 5.94706 47.7822 5.5426 47.7822 5.04284C47.7822 4.54343 48.1853 4.13824 48.6825 4.13824C49.1789 4.13824 49.5817 4.54343 49.5817 5.04284Z" fill="#231F20"/>
<path d="M49.0901 7.87691C49.0901 8.10776 48.9042 8.29513 48.6742 8.29513C48.4449 8.29513 48.2588 8.10776 48.2588 7.87691C48.2588 7.64623 48.4449 7.45868 48.6742 7.45868C48.9042 7.45868 49.0901 7.64623 49.0901 7.87691Z" fill="#231F20"/>
<path d="M49.0901 9.28755C49.0901 9.51858 48.9042 9.70614 48.6742 9.70614C48.4449 9.70614 48.2588 9.51858 48.2588 9.28755C48.2588 9.05723 48.4449 8.86969 48.6742 8.86969C48.9042 8.86969 49.0901 9.05723 49.0901 9.28755Z" fill="#231F20"/>
<path d="M49.0901 10.6982C49.0901 10.9289 48.9042 11.1167 48.6742 11.1167C48.4449 11.1167 48.2588 10.9289 48.2588 10.6982C48.2588 10.4678 48.4449 10.2804 48.6742 10.2804C48.9042 10.2804 49.0901 10.4678 49.0901 10.6982Z" fill="#231F20"/>
<path d="M49.068 12.114C49.068 12.3447 48.8806 12.5324 48.6516 12.5324C48.4211 12.5324 48.2358 12.3447 48.2358 12.114C48.2358 11.8832 48.4211 11.696 48.6516 11.696C48.8806 11.696 49.068 11.8832 49.068 12.114Z" fill="#231F20"/>
<path d="M57.7422 12.7144C57.7422 12.9456 57.9282 13.1328 58.1572 13.1328C58.3875 13.1328 58.5727 12.9456 58.5727 12.7144C58.5727 12.4835 58.3875 12.2965 58.1572 12.2965C57.9282 12.2965 57.7422 12.4835 57.7422 12.7144Z" fill="#231F20"/>
<path d="M57.7314 11.5538C57.7314 11.7845 57.918 11.9717 58.1476 11.9717C58.3773 11.9717 58.5637 11.7845 58.5637 11.5538C58.5637 11.3226 58.3773 11.1353 58.1476 11.1353C57.918 11.1353 57.7314 11.3226 57.7314 11.5538Z" fill="#231F20"/>
<path d="M22.2764 88.4868C22.4284 88.1626 22.6945 87.9947 23.0761 88.0247C23.0085 87.8007 23.0191 87.5849 23.103 87.4036C23.3007 86.9768 23.7901 86.8626 24.3048 87.0932C24.5357 87.1969 24.7362 87.3578 24.8659 87.5412C24.9105 87.6061 24.9122 87.6476 24.8591 87.6926C24.7718 87.7692 24.7281 87.8074 24.6408 87.8835C24.5722 87.9403 24.5361 87.933 24.4665 87.8574C24.3608 87.7426 24.2342 87.6501 24.1401 87.6081C23.9193 87.5093 23.7449 87.5577 23.6613 87.7438C23.61 87.8576 23.6011 88.0093 23.6667 88.1849C24.0439 88.355 24.2329 88.4384 24.612 88.6017C24.6954 88.6376 24.6952 88.6962 24.6658 88.7653C24.6183 88.8773 24.5948 88.9332 24.5472 89.045C24.5163 89.1181 24.4833 89.1492 24.3951 89.1112C24.0359 88.9565 23.8568 88.8776 23.4995 88.7169C23.128 88.5499 22.9483 88.6122 22.8741 88.7753C22.7826 88.9759 22.919 89.1909 23.2733 89.3501C23.4507 89.4297 23.6815 89.4914 23.9919 89.5401C24.1092 89.5593 24.1338 89.5834 24.1308 89.6727C24.1296 89.7793 24.1291 89.8326 24.1281 89.939C24.1275 90.0474 24.0756 90.0753 23.9568 90.0692C23.6717 90.0505 23.3323 89.9653 23.047 89.8373C22.2847 89.495 22.0345 89.0032 22.2764 88.4868Z" fill="white"/>
<path d="M25.752 88.9213C25.7083 89.0293 25.7225 89.0669 25.8314 89.1108C25.9419 89.1557 25.9973 89.178 26.1079 89.2219C26.0266 89.4281 25.9858 89.5311 25.9047 89.7371C25.7759 89.6858 25.7118 89.6598 25.5833 89.608C25.1017 89.4126 24.9653 89.1454 25.1043 88.8109C25.4518 87.9743 25.6258 87.5561 25.9735 86.7194C26.0053 86.6427 26.0455 86.6369 26.1088 86.6542C26.2705 86.7001 26.3512 86.7227 26.5129 86.7673C26.5762 86.7843 26.5927 86.8362 26.5693 86.8939C26.2424 87.7048 26.0789 88.1104 25.752 88.9213Z" fill="white"/>
<path d="M27.6995 87.8088C27.7551 87.6608 27.8984 87.613 28.0491 87.6693C28.1996 87.7257 28.2768 87.8564 28.2226 88.0047C28.1684 88.1535 28.0243 88.2026 27.8726 88.1457C27.7207 88.0888 27.6437 87.957 27.6995 87.8088ZM27.5266 89.0922C27.3262 89.0172 27.1985 89.1288 27.1399 89.2846C27.0975 89.3976 27.0969 89.5132 27.1382 89.6223C27.1905 89.642 27.2165 89.6519 27.2688 89.6715C27.446 89.738 27.6155 89.7072 27.6938 89.492C27.751 89.3357 27.727 89.1673 27.5266 89.0922ZM26.5192 89.3846C26.5028 89.2395 26.5266 89.0791 26.5704 88.9664C26.7195 88.5822 27.1425 88.3615 27.7176 88.5768C28.2553 88.7781 28.487 89.1816 28.3028 89.7041C28.1074 90.2578 27.6421 90.4037 27.0293 90.1732C26.561 89.997 26.3277 89.9065 25.8624 89.7204C25.8159 89.7018 25.7266 89.6301 25.8161 89.4055C25.907 89.1774 26.02 89.1869 26.066 89.2054C26.2471 89.2778 26.3378 89.3135 26.5192 89.3846Z" fill="white"/>
<path d="M30.4313 90.7588C30.6127 90.8154 30.7036 90.8435 30.8853 90.8988C30.8215 91.1109 30.7896 91.2171 30.7258 91.4293C29.7704 91.1386 29.2949 90.9832 28.349 90.6523C28.2634 90.6223 28.2556 90.5755 28.2818 90.5007C28.3219 90.3858 28.3418 90.3284 28.3818 90.2136C28.4066 90.1428 28.4496 90.1005 28.5304 90.1288C29.0464 90.3094 29.3052 90.3969 29.8244 90.5651C29.8656 90.4369 29.8863 90.3725 29.9275 90.244C30.0191 89.9586 29.8968 89.8321 29.5683 89.7225C29.3243 89.6411 29.0982 89.6162 29.0017 89.5828C28.9427 89.5626 28.9115 89.5165 28.9371 89.4415C28.9696 89.3471 28.9859 89.2998 29.0183 89.2054C29.0441 89.1304 29.0771 89.1155 29.1382 89.1144C29.3195 89.1155 29.574 89.1582 29.8164 89.2388C30.4964 89.4649 30.7183 89.8316 30.5334 90.4285C30.4926 90.5607 30.4722 90.6266 30.4313 90.7588Z" fill="white"/>
<path d="M31.2892 91.0201C31.4008 91.0532 31.4349 91.0327 31.4673 90.9208C31.7041 90.1065 31.8225 89.6993 32.0594 88.8851C32.0826 88.8051 32.1213 88.7947 32.1857 88.8049C32.3497 88.8319 32.432 88.8451 32.5959 88.8711C32.66 88.8807 32.6821 88.9301 32.6652 88.9903C32.4141 89.8889 32.2887 90.3382 32.0376 91.2366C31.9399 91.5858 31.6707 91.7107 31.1766 91.5646C30.9791 91.5061 30.8803 91.4764 30.6829 91.4162C30.6353 91.4018 30.5412 91.3381 30.6118 91.1069C30.6833 90.8719 30.7958 90.8715 30.843 90.8858C31.0215 90.9403 31.1106 90.9672 31.2892 91.0201Z" fill="white"/>
<path d="M33.1289 89.1884C33.1506 89.1078 33.1892 89.0968 33.2536 89.1057C33.4181 89.1296 33.5002 89.1412 33.6646 89.1639C33.7289 89.1722 33.7517 89.2214 33.736 89.2816C33.4582 90.3543 33.3193 90.8905 33.0414 91.9634C33.0216 92.0397 32.9686 92.0647 32.8986 92.0463C32.7435 92.0054 32.666 91.9845 32.5108 91.9427C32.4455 91.9249 32.402 91.8785 32.4227 91.802C32.7051 90.7565 32.8463 90.2336 33.1289 89.1884Z" fill="white"/>
<path d="M36.1404 90.2273C36.1734 90.0723 36.3068 90.0031 36.4622 90.0357C36.6177 90.0684 36.7121 90.1855 36.6806 90.3407C36.649 90.4958 36.5156 90.5662 36.3587 90.5333C36.2019 90.5006 36.1075 90.382 36.1404 90.2273ZM35.3628 91.7924C35.3242 91.9676 35.3843 92.1307 35.6153 92.1808C35.8465 92.231 35.968 92.1073 36.0046 91.9319C36.0454 91.7361 36.0052 91.498 35.7728 91.4474C35.54 91.3972 35.4058 91.5973 35.3628 91.7924ZM35.4665 90.0781C35.5013 89.9237 35.6355 89.856 35.7906 89.8904C35.9458 89.925 36.0388 90.0433 36.0056 90.1981C35.9723 90.3526 35.8379 90.4216 35.6812 90.3869C35.5247 90.352 35.4318 90.2323 35.4665 90.0781ZM34.7394 91.6503C34.8464 91.1876 35.2669 90.7666 35.8898 90.9019C36.5085 91.036 36.7224 91.5946 36.6301 92.0603C36.5211 92.612 36.079 92.8526 35.4982 92.7266C34.9175 92.6006 34.6126 92.198 34.7394 91.6503Z" fill="white"/>
<path d="M37.7522 92.6163C37.6314 93.2974 37.4292 93.5634 36.519 93.8008C36.4357 93.8227 36.3769 93.7897 36.3468 93.7073C36.3038 93.5866 36.2823 93.5261 36.24 93.4054C36.2101 93.323 36.2548 93.2854 36.3674 93.2526C36.8967 93.0951 37.0467 92.9438 37.1398 92.4482C37.22 92.0226 37.2599 91.8097 37.34 91.3838C37.3554 91.3019 37.4158 91.288 37.4929 91.3024C37.6338 91.3289 37.7042 91.342 37.8449 91.3676C37.9267 91.3821 37.9659 91.4105 37.9506 91.4965C37.8713 91.9445 37.8316 92.1685 37.7522 92.6163Z" fill="white"/>
<path d="M38.6396 90.4074C38.6535 90.3254 38.6905 90.3105 38.7553 90.3128C38.9204 90.3205 39.0029 90.3239 39.1681 90.3303C39.2324 90.3323 39.2596 90.3789 39.2498 90.4407C39.077 91.5353 38.9905 92.0826 38.8177 93.1772C38.8055 93.2555 38.7551 93.2854 38.6844 93.2741C38.5266 93.2484 38.4477 93.2355 38.2901 93.2089C38.2237 93.1977 38.176 93.1558 38.1892 93.0777C38.3694 92.0097 38.4595 91.4755 38.6396 90.4074Z" fill="white"/>
<path d="M39.8521 90.9335C39.8751 90.7767 40.0033 90.699 40.1602 90.7215C40.3171 90.744 40.4188 90.8546 40.3974 91.0115C40.3759 91.1684 40.2473 91.2474 40.0892 91.2247C39.9307 91.2022 39.8292 91.0903 39.8521 90.9335ZM40.1618 92.9977C40.0686 93.683 39.8774 93.957 38.979 94.2315C38.8967 94.2569 38.8368 94.2262 38.8034 94.1451C38.7556 94.0262 38.7318 93.9668 38.6846 93.8478C38.6517 93.7668 38.6947 93.7274 38.8057 93.6899C39.3275 93.5111 39.4709 93.3538 39.5442 92.8549C39.6071 92.4262 39.6385 92.2117 39.7014 91.7831C39.7135 91.7005 39.7732 91.6843 39.8509 91.6955C39.9921 91.7162 40.063 91.7263 40.2045 91.7461C40.2865 91.7576 40.3268 91.7842 40.3151 91.8708C40.2538 92.3216 40.2231 92.5469 40.1618 92.9977Z" fill="white"/>
<path d="M41.8841 92.786C41.9025 92.6161 41.8393 92.5046 41.6472 92.483C41.442 92.4596 41.3232 92.567 41.3011 92.7533C41.271 93.0099 41.3868 93.0911 41.6558 93.1211C41.7318 93.1296 41.7698 93.1338 41.8456 93.1422C41.8609 92.9997 41.8687 92.9284 41.8841 92.786ZM41.6749 93.6808C41.6127 93.6739 41.5815 93.6706 41.5191 93.6635C40.9135 93.5947 40.5931 93.2741 40.67 92.6749C40.7358 92.1623 41.1245 91.8699 41.6912 91.9345C42.2233 91.9949 42.5623 92.2865 42.5079 92.8464C42.4937 92.9907 42.4868 93.0627 42.4726 93.207C42.637 93.2234 42.7193 93.231 42.8837 93.246C42.8636 93.4669 42.8537 93.5772 42.8337 93.798C42.6482 93.7811 42.5554 93.7722 42.3701 93.7539C42.2398 94.1177 41.9498 94.3222 41.2287 94.578C41.1476 94.6064 41.0862 94.5822 41.0498 94.5023C40.9979 94.3853 40.972 94.3266 40.9204 94.2096C40.8845 94.1297 40.9209 94.0922 41.0355 94.0473C41.365 93.915 41.5557 93.8227 41.6749 93.6808Z" fill="white"/>
<path d="M42.7705 94.5496C42.7848 94.3919 42.9149 94.3077 43.0813 94.3222C43.2477 94.3365 43.3614 94.4417 43.3487 94.5996C43.336 94.7574 43.2057 94.843 43.0379 94.8284C42.8703 94.8139 42.7563 94.7072 42.7705 94.5496ZM43.2993 93.2826C43.4143 93.2922 43.4431 93.2651 43.4528 93.1491C43.4826 92.7784 43.4978 92.5932 43.5276 92.2228C43.5345 92.1397 43.5927 92.1196 43.6709 92.1257C43.8131 92.1372 43.8842 92.1426 44.0266 92.153C44.109 92.159 44.1509 92.183 44.1448 92.2701C44.1143 92.699 44.0991 92.9134 44.0689 93.3426C44.0435 93.704 43.8065 93.8811 43.2979 93.8386C43.0944 93.8216 42.9927 93.8126 42.7893 93.7939C42.7403 93.7893 42.6362 93.7462 42.659 93.5057C42.6818 93.2608 42.791 93.2376 42.8396 93.242C43.0233 93.259 43.1153 93.267 43.2993 93.2826Z" fill="white"/>
<path d="M47.0995 91.198C47.103 91.0396 47.2195 90.9462 47.3766 90.9489C47.5339 90.9515 47.6475 91.0486 47.6456 91.207C47.6436 91.3651 47.5268 91.46 47.3684 91.4571C47.2098 91.4544 47.0961 91.3561 47.0995 91.198ZM46.4169 91.1792C46.4222 91.0209 46.5401 90.929 46.6972 90.9335C46.8542 90.9381 46.9667 91.0365 46.9631 91.1949C46.9593 91.353 46.8413 91.4462 46.6828 91.4416C46.5242 91.4372 46.4118 91.3374 46.4169 91.1792ZM46.4762 93.2738C46.5824 93.2773 46.6891 93.2551 46.7694 93.2281C46.7745 93.0232 46.7773 92.9208 46.7824 92.7159C46.4601 92.824 46.2481 92.9661 46.2429 93.1159C46.2389 93.2327 46.3438 93.2699 46.4762 93.2738ZM47.3954 93.287C47.3933 93.4288 47.4456 93.4882 47.6229 93.4901C47.7063 93.4912 47.748 93.4916 47.8312 93.4923L47.8265 94.0465C47.7371 94.0458 47.6925 94.0454 47.6028 94.0443C47.2226 94.0396 46.9694 93.9418 46.8492 93.7553C46.7102 93.7935 46.5489 93.8142 46.384 93.8088C45.9828 93.7958 45.5932 93.6235 45.6125 93.1949C45.6261 92.8953 45.8503 92.4954 46.796 92.1993L46.7993 92.0659C46.8016 91.9826 46.8367 91.9628 46.8975 91.9559C47.0656 91.9401 47.1496 91.9317 47.3176 91.9147C47.3824 91.9076 47.4163 91.9496 47.4155 92.0123C47.4073 92.5222 47.4034 92.7772 47.3954 93.287Z" fill="white"/>
<path d="M48.3553 94.803C48.3553 94.6446 48.4771 94.5489 48.6439 94.548C48.8109 94.5472 48.9335 94.6416 48.9351 94.8C48.9365 94.9584 48.8147 95.0553 48.6464 95.0562C48.4781 95.0572 48.3553 94.9612 48.3553 94.803ZM47.6306 94.7989C47.6324 94.6405 47.7553 94.5464 47.9222 94.5474C48.089 94.5485 48.2108 94.6443 48.2104 94.8027C48.21 94.9611 48.0872 95.0568 47.9187 95.0557C47.7506 95.0545 47.6288 94.9573 47.6306 94.7989ZM49.5628 94.0362C49.5576 94.0364 49.5549 94.0364 49.5497 94.0366C49.2634 94.0424 49.0742 93.9693 48.9615 93.8412C48.8513 93.9799 48.6459 94.0488 48.3373 94.0488C48.1152 94.0488 48.0044 94.0483 47.7823 94.0462C47.7331 94.0457 47.6263 94.0112 47.629 93.7695C47.6318 93.5238 47.7385 93.4915 47.7874 93.4919C47.9896 93.4939 48.0906 93.4942 48.2929 93.4945C48.4081 93.4946 48.4346 93.4653 48.4345 93.3485C48.4339 92.9769 48.4335 92.791 48.433 92.4193C48.4329 92.336 48.4894 92.311 48.5677 92.3108C48.7101 92.3103 48.7814 92.3097 48.924 92.3083C49.0066 92.3073 49.0503 92.3276 49.0514 92.4151C49.056 92.8084 49.0584 93.0051 49.0631 93.3984C49.1525 93.4684 49.2861 93.4876 49.5386 93.4824C49.5439 93.4823 49.5464 93.4823 49.5518 93.4822C49.5562 93.7039 49.5585 93.8146 49.5628 94.0362Z" fill="white"/>
<path d="M49.5187 94.0372C49.4695 94.0381 49.3616 94.0068 49.3575 93.765C49.3534 93.5193 49.4592 93.4839 49.5081 93.4831C50.1622 93.4702 50.4894 93.4595 51.1433 93.4289C51.0598 93.3535 51.0226 93.2774 50.9684 93.0864C50.8992 92.8414 50.7639 92.7245 50.5363 92.7328C50.3961 92.7381 50.2405 92.7934 50.0417 92.9076C49.9507 92.9603 49.9152 92.9445 49.8824 92.8703C49.8305 92.7631 49.8047 92.7096 49.7532 92.6024C49.7254 92.545 49.7376 92.5029 49.802 92.4596C50.0726 92.282 50.3258 92.203 50.573 92.1935C51.0719 92.1746 51.3859 92.3824 51.5375 92.9084C51.6078 93.1507 51.6855 93.2801 51.8653 93.3907C51.9696 93.3845 52.0219 93.3812 52.1265 93.3747C52.1403 93.596 52.1472 93.7065 52.161 93.9277C51.1049 93.9946 50.5764 94.0165 49.5187 94.0372Z" fill="white"/>
<path d="M53.1448 93.3015C53.7339 93.2542 54.0283 93.2267 54.6163 93.1649C54.6054 93.0588 54.5998 93.0057 54.5888 92.8996C54.5554 92.5804 54.3697 92.4495 54.1341 92.4726C53.8199 92.5034 53.435 92.81 53.1448 93.3015ZM52.5164 93.3488C52.4867 92.9196 52.472 92.7053 52.4423 92.2762C52.4366 92.193 52.4913 92.1642 52.5693 92.1586C52.7117 92.1484 52.7828 92.143 52.925 92.1319C53.0074 92.1254 53.0525 92.1427 53.0596 92.2299C53.0699 92.3612 53.0752 92.4268 53.0857 92.558C53.3923 92.1572 53.7534 91.9703 54.1297 91.933C54.7436 91.8722 55.1538 92.2419 55.2226 92.8422C55.2343 92.943 55.2401 92.9936 55.2517 93.0944C55.3858 93.0789 55.4529 93.0709 55.5869 93.0546C55.6136 93.2746 55.6268 93.3849 55.6533 93.6047C54.242 93.7767 53.5341 93.8418 52.1169 93.9305C52.0677 93.9336 51.9585 93.9069 51.9443 93.6657C51.9296 93.4203 52.0341 93.3804 52.0827 93.3774C52.2562 93.3665 52.3429 93.3607 52.5164 93.3488Z" fill="white"/>
<path d="M56.0021 93.0026C56.1166 92.988 56.1394 92.9553 56.1242 92.8397C56.0149 91.9985 55.9603 91.578 55.8509 90.7366C55.8403 90.6539 55.8715 90.6289 55.9338 90.6122C56.0937 90.5708 56.1735 90.5497 56.333 90.5072C56.3953 90.49 56.4349 90.5266 56.4435 90.5884C56.5735 91.5126 56.6384 91.9746 56.7683 92.8988C56.8188 93.258 56.6234 93.4809 56.1166 93.5466C55.914 93.5728 55.8125 93.5855 55.6097 93.6101C55.5607 93.6159 55.4501 93.5957 55.422 93.3558C55.3933 93.1115 55.4951 93.0658 55.5437 93.0599C55.7271 93.0377 55.8188 93.0261 56.0021 93.0026Z" fill="white"/>
<path d="M56.9441 90.5824C56.9318 90.5 56.9625 90.4743 57.0247 90.4563C57.1838 90.412 57.2633 90.3893 57.4219 90.3436C57.4838 90.3254 57.5243 90.3611 57.5341 90.4228C57.7091 91.5172 57.7966 92.0645 57.9716 93.1586C57.9842 93.2367 57.9457 93.2811 57.8746 93.2924C57.7169 93.3176 57.6381 93.33 57.4802 93.354C57.4138 93.3642 57.3556 93.3393 57.3438 93.2609C57.184 92.1896 57.104 91.6538 56.9441 90.5824Z" fill="white"/>
<path d="M60.9774 90.4157C60.9432 90.2612 61.0366 90.1424 61.1923 90.1069C61.3481 90.0716 61.483 90.1385 61.5185 90.2927C61.5541 90.447 61.4608 90.5672 61.3037 90.603C61.1467 90.6387 61.0114 90.5703 60.9774 90.4157ZM60.2994 90.5622C60.2671 90.407 60.3618 90.2896 60.518 90.2561C60.6741 90.2226 60.8081 90.2908 60.8417 90.4457C60.8755 90.6004 60.781 90.7195 60.6235 90.7531C60.4662 90.787 60.3315 90.717 60.2994 90.5622ZM59.2932 91.6374C59.2779 91.5556 59.3295 91.5205 59.4068 91.5057C59.5499 91.4785 59.6213 91.4646 59.7642 91.4362C59.8458 91.4201 59.8885 91.4328 59.9055 91.5188C59.9283 91.6347 59.9399 91.6928 59.9628 91.8088C60.0393 92.1972 60.2157 92.3078 60.6561 92.2154C61.2947 92.0814 61.6134 92.01 62.249 91.8584C62.3619 91.8315 62.3768 91.7976 62.3498 91.6843C62.2637 91.3228 62.2205 91.142 62.1344 90.7807C62.1151 90.6997 62.1645 90.662 62.2411 90.6434C62.3806 90.6095 62.4503 90.5922 62.5899 90.5574C62.6704 90.5373 62.718 90.5468 62.7393 90.6315C62.8432 91.0487 62.8954 91.257 62.9994 91.6742C63.0872 92.026 62.9194 92.2674 62.4288 92.3851C61.7228 92.5542 61.3686 92.6334 60.6588 92.7811C59.9323 92.9322 59.4857 92.6696 59.3834 92.1207C59.3473 91.9273 59.3292 91.8308 59.2932 91.6374Z" fill="white"/>
<path d="M64.0774 91.2405C64.1079 91.353 64.1412 91.3742 64.2533 91.3434C64.3673 91.312 64.4242 91.2964 64.5379 91.2645C64.5973 91.4778 64.6269 91.5846 64.6861 91.7982C64.554 91.8353 64.4879 91.8535 64.3555 91.89C63.8592 92.0262 63.5928 91.8959 63.502 91.5451C63.2751 90.6676 63.1615 90.2288 62.9346 89.3515C62.9137 89.2705 62.9416 89.2418 63.002 89.2173C63.1564 89.156 63.2334 89.1251 63.3873 89.0626C63.4473 89.0377 63.4915 89.0689 63.5078 89.1293C63.7356 89.9737 63.8496 90.3961 64.0774 91.2405Z" fill="white"/>
<path d="M65.5812 90.3C65.3774 90.362 65.3436 90.5281 65.3907 90.688C65.4247 90.8039 65.4938 90.8964 65.5918 90.9581C65.645 90.9422 65.6715 90.9341 65.7247 90.918C65.905 90.8634 66.0206 90.7359 65.9538 90.5172C65.905 90.3577 65.7848 90.2382 65.5812 90.3ZM64.9601 91.1443C64.8601 91.0386 64.7828 90.8962 64.7499 90.78C64.6374 90.3834 64.8387 89.9511 65.423 89.7734C65.9696 89.6074 66.3963 89.7881 66.5639 90.3162C66.7415 90.8757 66.4596 91.2747 65.8363 91.463C65.36 91.607 65.1213 91.6765 64.6429 91.8104C64.595 91.8237 64.4819 91.8205 64.418 91.5874C64.3531 91.3507 64.4477 91.2896 64.4952 91.2764C64.6813 91.2242 64.7743 91.198 64.9601 91.1443Z" fill="white"/>
<path d="M68.895 89.8601C69.0744 89.7947 69.1639 89.7616 69.3429 89.6947C69.4197 89.9025 69.4583 90.0065 69.535 90.2143C68.5945 90.5658 68.1217 90.7316 67.1709 91.0431C67.0847 91.0712 67.0507 91.0386 67.0264 90.9632C66.989 90.8474 66.9705 90.7894 66.9331 90.6738C66.9103 90.6024 66.9193 90.5426 67.0002 90.5159C67.5191 90.3462 67.7777 90.2581 68.2936 90.0761C68.2493 89.9486 68.2269 89.885 68.1826 89.7577C68.0838 89.4746 67.9097 89.4485 67.582 89.5611C67.3384 89.6447 67.1437 89.7623 67.0467 89.7946C66.9876 89.8143 66.9351 89.7966 66.9105 89.7212C66.8795 89.6262 66.864 89.5788 66.833 89.4838C66.8083 89.4086 66.8256 89.3766 66.8736 89.3386C67.0185 89.2292 67.2468 89.1084 67.4884 89.025C68.1665 88.7911 68.5655 88.9477 68.7777 89.5351C68.8245 89.6653 68.8482 89.7303 68.895 89.8601Z" fill="white"/>
<path d="M69.5114 87.5212C69.4543 87.3736 69.5286 87.2416 69.6782 87.1822C69.8278 87.1227 69.9723 87.1677 70.0311 87.3146C70.0894 87.4616 70.0152 87.595 69.8643 87.655C69.7133 87.7149 69.5686 87.6685 69.5114 87.5212ZM69.4929 90.2299C69.446 90.2473 69.3323 90.2542 69.2492 90.0273C69.1647 89.7966 69.2546 89.7276 69.3011 89.7101C69.9241 89.4777 70.2346 89.357 70.8526 89.1067C70.7476 89.0638 70.6868 89.0047 70.5725 88.8426C70.4257 88.6347 70.2574 88.57 70.0418 88.655C69.9089 88.7072 69.7778 88.8119 69.6242 88.9868C69.5543 89.0673 69.5151 89.0643 69.4593 89.0054C69.3745 88.9218 69.3323 88.8799 69.2477 88.7962C69.2023 88.7511 69.2003 88.7072 69.2477 88.6449C69.4488 88.3858 69.666 88.2257 69.9003 88.1334C70.3731 87.9466 70.7429 88.0363 71.0609 88.4817C71.2075 88.6867 71.3245 88.7826 71.5336 88.8259C71.6321 88.7846 71.6812 88.7639 71.7796 88.722C71.8655 88.9262 71.9083 89.0285 71.9941 89.2327C71.0003 89.6547 70.4997 89.854 69.4929 90.2299Z" fill="white"/>
<path d="M72.1713 88.5542C72.2792 88.5074 72.2928 88.4696 72.2467 88.3627C71.911 87.5842 71.7433 87.1951 71.4077 86.4168C71.3746 86.3403 71.3983 86.3073 71.4549 86.2734C71.5999 86.1881 71.6725 86.1451 71.817 86.0585C71.8731 86.0242 71.9218 86.0481 71.9472 86.1053C72.3256 86.9576 72.5147 87.3838 72.8929 88.2362C73.0398 88.5673 72.9093 88.8377 72.4313 89.0451C72.2401 89.1281 72.1442 89.1691 71.9524 89.2504C71.9063 89.27 71.7926 89.2818 71.6998 89.0589C71.6054 88.832 71.6926 88.7591 71.7386 88.7396C71.9117 88.6662 71.9984 88.6291 72.1713 88.5542Z" fill="white"/>
<path d="M72.4361 85.9566C72.4017 85.8808 72.4249 85.8472 72.4808 85.8122C72.6246 85.7238 72.6964 85.6793 72.8397 85.59C72.8953 85.5545 72.9445 85.5776 72.9709 85.634C73.4397 86.6372 73.674 87.1388 74.1428 88.1422C74.1761 88.2136 74.1507 88.2672 74.0842 88.2985C73.9363 88.368 73.8623 88.4023 73.7142 88.4708C73.6518 88.4996 73.5879 88.4922 73.5551 88.4201C73.1077 87.4347 72.8838 86.942 72.4361 85.9566Z" fill="white"/>
</g>
<defs>
<clipPath id="clip0_57_328">
<rect width="96.7742" height="100" fill="white" transform="translate(0.112793 0.5)"/>
</clipPath>
</defs>
</svg>
